<?xml version="1.0" encoding="utf-8"?>
<!-- Generator: Adobe Illustrator 27.3.1, SVG Export Plug-In . SVG Version: 6.00 Build 0)  -->
<svg version="1.1" id="Layer_1" xmlns="http://www.w3.org/2000/svg" xmlns:xlink="http://www.w3.org/1999/xlink" x="0px" y="0px"
	 viewBox="0 0 64 64" style="enable-background:new 0 0 64 64;" xml:space="preserve">
<style type="text/css">
	.st0{fill:#FFFFFF;}
</style>
<g>
	<polygon class="st0" points="32,44.5 4.9,31 31.4,17.7 58.5,31.3 	"/>
	<path class="st0" d="M32,46.5c-0.3,0-0.6-0.1-0.9-0.2L4,32.8c-0.7-0.3-1.1-1-1.1-1.8s0.4-1.5,1.1-1.8L30.5,16
		c0.6-0.3,1.2-0.3,1.8,0l27.1,13.5c0.7,0.3,1.1,1,1.1,1.8s-0.4,1.5-1.1,1.8L32.9,46.3C32.6,46.5,32.3,46.5,32,46.5z M9.4,31L32,42.3
		l22-11L31.4,20L9.4,31z"/>
</g>
</svg>
