<?xml version="1.0" encoding="utf-8"?>
<!-- Generator: Adobe Illustrator 27.3.1, SVG Export Plug-In . SVG Version: 6.00 Build 0)  -->
<svg version="1.1" xmlns="http://www.w3.org/2000/svg" xmlns:xlink="http://www.w3.org/1999/xlink" x="0px" y="0px"
	 viewBox="0 0 64 64" style="enable-background:new 0 0 64 64;" xml:space="preserve">
<style type="text/css">
	.st0{fill:#FFFFFF;}
</style>
<g id="Layer_2">
</g>
<g id="Layer_1">
	<g>
		<path class="st0" d="M4,22.8l27.1,13.6c0.3,0.1,0.6,0.2,0.9,0.2s0.6-0.1,0.9-0.2l26.5-13.2c0.7-0.3,1.1-1,1.1-1.8
			s-0.4-1.5-1.1-1.8L32.3,6c-0.6-0.3-1.2-0.3-1.8,0L4,19.2c-0.7,0.3-1.1,1-1.1,1.8S3.3,22.4,4,22.8z M31.4,10L54,21.3l-22,11L9.4,21
			L31.4,10z"/>
		<path class="st0" d="M55.8,44.3L41.2,37l-4.5,2.2L54,47.8l-22,11L9.4,47.5L26.5,39L22,36.8L7.6,44V27.9l-4.6-2v21.7
			c0,0.8,0.4,1.5,1.1,1.8l27.1,13.6c0.3,0.1,0.6,0.2,0.9,0.2s0.6-0.1,0.9-0.2l26.5-13.2c0.7-0.3,1.1-1,1.1-1.8c0-0.1,0-0.2,0-0.3h0
			V25.9l-4.6,2V44.3z"/>
	</g>
</g>
</svg>
