<svg width="113" height="25" viewBox="0 0 113 25" fill="none" xmlns="http://www.w3.org/2000/svg">
<path d="M23.1945 24.2355V24.756H14.2462V24.2355C16.5459 24.2355 15.4652 21.3757 15.0435 20.4005L13.9299 17.6198H5.29784C4.81023 19.0101 2.99817 24.4398 8.15104 24.2091V24.7297H0V24.2091C1.04771 24.1696 1.91751 24.2091 4.7707 17.0663H13.7586L9.14602 5.50854L11.1228 0.237061H11.6105C18.0219 15.5903 20.315 21.547 20.315 21.547C21.4879 24.3409 22.2522 24.163 23.1945 24.2355Z" fill="black"/>
<path d="M31.0688 24.7561H24.598V24.2355C26.0938 24.2355 26.7857 22.8056 26.7857 20.4401V3.79533C26.7857 1.66696 25.8105 0.764217 24.3147 0.764217V0.243652H33.9615V0.764217C32.4657 0.764217 31.0688 1.35727 31.0688 3.86122V24.7561ZM43.1537 24.7561H33.5068V24.196C36.7488 24.0247 41.9346 23.0494 42.6331 17.1981H43.1537V24.7561Z" fill="black"/>
<path d="M51.7659 24.7561H45.2886V24.2355C46.791 24.2355 47.4828 22.8056 47.4828 20.4401V3.79533C47.4828 1.66696 46.5076 0.764217 45.0118 0.764217V0.243652H54.6587V0.764217C53.1629 0.764217 51.7659 1.35727 51.7659 3.86122V24.7561ZM63.8508 24.7561H54.204V24.196C57.446 24.0247 62.6318 23.0494 63.3303 17.1981H63.8838L63.8508 24.7561Z" fill="black"/>
<path d="M76.0872 24.4795V25C69.2606 24.4399 65.6365 19.2211 65.6365 12.6713C65.6365 6.12151 69.2606 0.586452 76.0872 0V0.553503C72.6344 1.07406 70.618 4.10517 70.618 12.6713C70.618 21.2375 72.6344 23.9918 76.0872 24.4795ZM78.5186 25V24.4795C81.9319 23.9918 83.9219 21.2704 83.9219 12.6713C83.9219 4.07223 81.9451 1.07406 78.5186 0.553503V0.00659579C85.3847 0.593048 88.9694 6.16765 88.9694 12.6779C88.9694 19.1882 85.3847 24.4794 78.5186 25Z" fill="black"/>
<path d="M104.738 24.2355V24.7561H94.9855V24.2355C96.4483 24.2355 97.7728 23.2932 97.7728 20.6839V14.9379C92.6528 5.88416 91.0846 3.47903 91.0846 3.47903C89.5558 0.797161 88.4027 0.764225 87.4275 0.731279V0.243652H97.4235V0.731279C96.5867 0.731279 94.2541 0.691742 96.6196 4.68489L101.891 13.4619V20.6707C101.891 23.2932 103.249 24.2355 104.738 24.2355ZM102.405 0.243652H112.118V0.764217C110.899 0.764217 108.322 0.764222 104.421 8.38811L104.079 7.91368C104.672 6.70123 107.281 0.74445 102.412 0.74445L102.405 0.243652Z" fill="black"/>
</svg>
