<?xml version="1.0" encoding="utf-8"?>
<!-- Generator: Adobe Illustrator 27.3.1, SVG Export Plug-In . SVG Version: 6.00 Build 0)  -->
<svg version="1.1" id="Layer_1" xmlns="http://www.w3.org/2000/svg" xmlns:xlink="http://www.w3.org/1999/xlink" x="0px" y="0px"
	 viewBox="0 0 64 64" style="enable-background:new 0 0 64 64;" xml:space="preserve">
<style type="text/css">
	.st0{fill:#FFFFFF;}
	.st1{fill:#F05151;}
	.st2{fill:#FEEEED;}
	.st3{fill:#F7F9FA;}
	.st4{fill:#F15D5B;}
	.st5{fill:#F68634;}
	.st6{fill:#F08933;}
	.st7{fill:#F38236;}
	.st8{fill:#F6C231;}
	.st9{fill:#E5A832;}
	.st10{fill:#F4C031;}
	.st11{fill:#F5EC36;}
	.st12{fill:#F3C231;}
	.st13{fill:#C6DA43;}
	.st14{fill:#C9D841;}
	.st15{fill:#7CC24D;}
	.st16{fill:#40B58F;}
	.st17{fill:#76BD53;}
	.st18{fill:#4A9AD0;}
</style>
<g>
	<path class="st0" d="M26.5,56.5C28,59,29,62,30.8,64.2c10.2-16.5,19.7-32.9,29.4-50C41.7,13.9,23.3,13.9,4.8,14
		c5.4,11.9,11.9,23.6,17.7,34.9C23.8,51.4,25.2,54,26.5,56.5z"/>
	<path class="st1" d="M46.3,38.3c-5.3,8.6-10,17.4-15.5,25.9C21.7,47.8,13,30.9,4.8,14c18.5,0,36.9-0.1,55.4,0.2
		C55.8,22.3,50.8,30.2,46.3,38.3z M57.1,16.2c-15.9-0.3-32.9-0.3-49,0c7.5,14.8,15.3,29.5,22.8,44.3C39.6,45.8,48.5,31.1,57.1,16.2z
		"/>
	<path class="st2" d="M45.8,39c0.1-0.2,0.2-0.3,0.3-0.5C46.2,38.7,46.1,39,45.8,39z"/>
	<path class="st2" d="M36.4,55c0.1-0.2,0.2-0.3,0.3-0.5C36.8,54.7,36.8,54.9,36.4,55z"/>
	<path class="st2" d="M41.6,46.1c0.1-0.2,0.2-0.3,0.3-0.5C42,45.9,42,46.1,41.6,46.1z"/>
	<path class="st2" d="M44.6,41.1c0.1-0.2,0.2-0.3,0.3-0.5C44.9,40.8,44.9,41.1,44.6,41.1z"/>
	<path class="st3" d="M17.5,39.5c0.1,0.1,0.2,0.2,0.4,0.4C17.6,39.8,17.5,39.7,17.5,39.5z"/>
	<path class="st2" d="M38.7,51.2c0.1-0.1,0.2-0.2,0.3-0.4C38.9,50.9,38.8,51,38.7,51.2z"/>
	<path class="st2" d="M22.2,48.5c0.1,0.1,0.2,0.2,0.4,0.4C22.3,48.9,22.2,48.8,22.2,48.5z"/>
	<path class="st4" d="M31.7,62.9c0,0,0.1-0.1,0.1-0.1C31.8,62.8,31.8,62.9,31.7,62.9z"/>
	<path class="st4" d="M46.3,38.3c0-0.1,0.1-0.1,0.1-0.2C46.4,38.2,46.3,38.2,46.3,38.3z"/>
	<path class="st4" d="M19.8,43.7c0,0,0.1,0.1,0.1,0.1C19.9,43.8,19.8,43.7,19.8,43.7z"/>
	<path class="st4" d="M24.3,52.4c0,0,0.1,0.1,0.1,0.1C24.4,52.4,24.3,52.4,24.3,52.4z"/>
	<path class="st4" d="M26.4,56.4c0,0,0.1,0.1,0.1,0.1C26.5,56.4,26.4,56.4,26.4,56.4z"/>
	<path class="st2" d="M32.3,61.9c0-0.1,0.1-0.1,0.1-0.2C32.4,61.8,32.3,61.9,32.3,61.9z"/>
	<path class="st5" d="M30.7,60C23.2,45.4,15.5,30.9,8.1,16.2c16.2-0.5,32.8-0.1,49,0C48.3,30.6,40.1,46.6,30.7,60z M30.9,55.7
		c7.1-12.5,15.3-25,22.1-37.5c-13.7-0.3-27.6-0.3-41.3,0c5.9,12.7,13,24.9,19.1,37.5C30.7,55.7,30.8,55.7,30.9,55.7z"/>
	<path class="st6" d="M57.1,16.2c-1.8-0.1-3.7,0.2-5.6-0.2C53.3,16.2,55.6,15.7,57.1,16.2z"/>
	<path class="st6" d="M49.3,16.1c-0.7,0.3-1.4,0.3-2.1,0C47.9,16.1,48.6,16.1,49.3,16.1z"/>
	<path class="st7" d="M30.7,60c0.2,0,0.3,0,0.5,0c-0.1,0.1-0.2,0.3-0.3,0.5C30.8,60.3,30.7,60.2,30.7,60z"/>
	<path class="st6" d="M8.3,16.1c-0.1,0.1-0.1,0.1-0.2,0.2C8.2,16.2,8.2,16.1,8.3,16.1z"/>
	<path class="st8" d="M52.9,18.1C46,30.4,38.3,43.5,30.7,55.5C24.4,43,17.6,30.7,11.6,18.1C25.4,18.1,39.1,18.1,52.9,18.1z
		 M31.7,49.1c5.8-9.8,11.3-19.2,16.8-28.7c-10.7,0.1-22.1-0.5-33.2,0c4.9,10.1,10.4,20.1,15.4,30.2C31.2,50.1,31.3,49.5,31.7,49.1z"
		/>
	<path class="st9" d="M52.9,18.1c-13.8,0-27.6,0-41.3,0C25.3,17.8,39.2,17.8,52.9,18.1z"/>
	<path class="st6" d="M52.7,18.8c0.1-0.1,0.1-0.1,0.2-0.2C52.8,18.7,52.8,18.8,52.7,18.8z"/>
	<path class="st6" d="M52.6,19.2c0.1-0.1,0.1-0.1,0.2-0.2C52.7,19,52.6,19.1,52.6,19.2z"/>
	<path class="st6" d="M51.7,20.6c0.1-0.1,0.1-0.1,0.2-0.2C51.8,20.4,51.8,20.5,51.7,20.6z"/>
	<path class="st6" d="M51.5,20.9c0.1-0.1,0.1-0.1,0.2-0.2C51.6,20.8,51.6,20.9,51.5,20.9z"/>
	<path class="st10" d="M30.7,55.5c0.1,0,0.1,0,0.2,0c0,0.1,0,0.1,0,0.2c-0.1,0-0.1,0-0.2,0C30.7,55.6,30.7,55.5,30.7,55.5z"/>
	<path class="st6" d="M30.7,55.7c0.1,0,0.1,0,0.2,0C30.8,55.7,30.7,55.7,30.7,55.7z"/>
	<path class="st11" d="M33.8,45.6c-0.3,0.5-0.5,1-0.9,1.4c-0.5,1.2-1.4,2.2-1.9,3.3c-0.1,0-0.2,0-0.3,0c-5-10-10.4-19.9-15.3-29.9
		c11.1,0,22.1,0,33.2,0c-4,7.1-8.2,13.9-12.3,21C35.5,42.9,34.6,44.2,33.8,45.6z M30.5,44.7c0.1,0.2,0.2,0.3,0.3,0.6
		c4.3-7.6,9.1-15,13.3-22.7C12.6,23.7,16.2,15.9,30.5,44.7z"/>
	<path class="st12" d="M34.2,20.4c-6.2,0-12.4,0-18.6,0C21.7,20.1,28,20.1,34.2,20.4z"/>
	<path class="st12" d="M46,20.4c-0.8,0-1.6,0-2.4,0C44.3,20.1,45.2,20.1,46,20.4z"/>
	<path class="st12" d="M40.1,20.4c-0.5,0-0.9,0-1.4,0C39.1,20.1,39.6,20.1,40.1,20.4z"/>
	<path class="st12" d="M30.7,50.3c0.1,0,0.2,0,0.3,0c-0.1,0.1-0.1,0.2-0.2,0.3C30.8,50.5,30.7,50.4,30.7,50.3z"/>
	<path class="st12" d="M48.2,20.4c-0.2,0-0.3,0-0.5,0C47.9,20.2,48,20.2,48.2,20.4z"/>
	<path class="st12" d="M35.9,42.1c0.1-0.1,0.1-0.2,0.2-0.3C36,41.9,35.9,42,35.9,42.1z"/>
	<path class="st12" d="M37.1,40c0.1-0.1,0.1-0.2,0.2-0.3C37.2,39.8,37.2,39.9,37.1,40z"/>
	<path class="st12" d="M32.8,47.3c0.1-0.1,0.1-0.2,0.2-0.3C32.9,47.1,32.8,47.2,32.8,47.3z"/>
	<path class="st12" d="M33.8,45.6c0.1-0.1,0.1-0.2,0.2-0.3C33.9,45.4,33.9,45.5,33.8,45.6z"/>
	<path class="st12" d="M36.6,40.9c0.1-0.1,0.1-0.2,0.2-0.3C36.7,40.7,36.6,40.8,36.6,40.9z"/>
	<path class="st12" d="M36.1,41.8c0.1-0.1,0.1-0.2,0.2-0.3C36.2,41.5,36.1,41.6,36.1,41.8z"/>
	<path class="st12" d="M34.3,44.7c0.1-0.1,0.1-0.2,0.2-0.3C34.4,44.5,34.4,44.6,34.3,44.7z"/>
	<path class="st12" d="M48.2,21.3c0.1-0.1,0.1-0.2,0.2-0.4C48.3,21,48.3,21.1,48.2,21.3z"/>
	<path class="st12" d="M39.4,36.2c0.1-0.1,0.1-0.2,0.2-0.4C39.5,36,39.4,36.1,39.4,36.2z"/>
	<path class="st12" d="M15.4,20.4c0,0.1,0,0.1,0,0.2C15.4,20.5,15.4,20.5,15.4,20.4z"/>
	<path class="st12" d="M48.6,20.6c0-0.1,0-0.1,0-0.2C48.6,20.5,48.6,20.5,48.6,20.6z"/>
	<path class="st12" d="M47.9,21.6c0.1-0.1,0.1-0.1,0.2-0.2C48,21.5,47.9,21.5,47.9,21.6z"/>
	<path class="st12" d="M47.7,22c0.1-0.1,0.1-0.1,0.2-0.2C47.8,21.8,47.8,21.9,47.7,22z"/>
	<path class="st12" d="M47.4,22.5c0.1-0.1,0.1-0.1,0.2-0.2C47.5,22.4,47.4,22.4,47.4,22.5z"/>
	<path class="st12" d="M47.2,22.8c0.1-0.1,0.1-0.1,0.2-0.2C47.3,22.7,47.2,22.8,47.2,22.8z"/>
	<path class="st12" d="M46.8,23.3c0.1-0.1,0.1-0.1,0.2-0.2C46.9,23.2,46.9,23.3,46.8,23.3z"/>
	<path class="st12" d="M46.3,24.2c0.1-0.1,0.1-0.1,0.2-0.2C46.4,24.1,46.4,24.2,46.3,24.2z"/>
	<path class="st12" d="M46.1,24.6c0.1-0.1,0.1-0.1,0.2-0.2C46.3,24.4,46.2,24.5,46.1,24.6z"/>
	<path class="st12" d="M45.8,25.1c0.1-0.1,0.1-0.1,0.2-0.2C45.9,25,45.9,25,45.8,25.1z"/>
	<path class="st12" d="M45.6,25.4c0.1-0.1,0.1-0.1,0.2-0.2C45.7,25.3,45.7,25.4,45.6,25.4z"/>
	<path class="st12" d="M45.1,26.3c0.1-0.1,0.1-0.1,0.2-0.2C45.2,26.2,45.2,26.2,45.1,26.3z"/>
	<path class="st12" d="M44.9,26.6c0.1-0.1,0.1-0.1,0.2-0.2C45,26.5,45,26.6,44.9,26.6z"/>
	<path class="st12" d="M44.6,27.2c0.1-0.1,0.1-0.1,0.2-0.2C44.7,27.1,44.6,27.1,44.6,27.2z"/>
	<path class="st12" d="M44.4,27.5c0.1-0.1,0.1-0.1,0.2-0.2C44.5,27.4,44.5,27.5,44.4,27.5z"/>
	<path class="st12" d="M44.1,28c0.1-0.1,0.1-0.1,0.2-0.2C44.2,27.9,44.1,28,44.1,28z"/>
	<path class="st12" d="M43.9,28.4c0.1-0.1,0.1-0.1,0.2-0.2C44,28.3,43.9,28.3,43.9,28.4z"/>
	<path class="st12" d="M43.5,28.9c0.1-0.1,0.1-0.1,0.2-0.2C43.6,28.8,43.6,28.8,43.5,28.9z"/>
	<path class="st12" d="M43.4,29.3c0.1-0.1,0.1-0.1,0.2-0.2C43.5,29.1,43.4,29.2,43.4,29.3z"/>
	<path class="st12" d="M43,29.8c0.1-0.1,0.1-0.1,0.2-0.2C43.1,29.7,43.1,29.7,43,29.8z"/>
	<path class="st12" d="M42.8,30.1c0.1-0.1,0.1-0.1,0.2-0.2C43,30,42.9,30.1,42.8,30.1z"/>
	<path class="st12" d="M42.5,30.6c0.1-0.1,0.1-0.1,0.2-0.2C42.6,30.5,42.6,30.6,42.5,30.6z"/>
	<path class="st12" d="M42.3,31c0.1-0.1,0.1-0.1,0.2-0.2C42.4,30.9,42.4,30.9,42.3,31z"/>
	<path class="st12" d="M42.1,31.3c0.1-0.1,0.1-0.1,0.2-0.2C42.3,31.2,42.2,31.3,42.1,31.3z"/>
	<path class="st12" d="M42,31.7c0.1-0.1,0.1-0.1,0.2-0.2C42.1,31.6,42,31.6,42,31.7z"/>
	<path class="st12" d="M41.8,31.9c0.1-0.1,0.1-0.1,0.2-0.2C41.9,31.7,41.9,31.8,41.8,31.9z"/>
	<path class="st12" d="M41.6,32.2c0.1-0.1,0.1-0.1,0.2-0.2C41.7,32.1,41.7,32.1,41.6,32.2z"/>
	<path class="st12" d="M41.3,32.7c0.1-0.1,0.1-0.1,0.2-0.2C41.4,32.6,41.3,32.7,41.3,32.7z"/>
	<path class="st12" d="M41.1,33.1c0.1-0.1,0.1-0.1,0.2-0.2C41.2,33,41.2,33,41.1,33.1z"/>
	<path class="st12" d="M40.8,33.6c0.1-0.1,0.1-0.1,0.2-0.2C40.9,33.5,40.8,33.5,40.8,33.6z"/>
	<path class="st12" d="M40.6,33.9c0.1-0.1,0.1-0.1,0.2-0.2C40.7,33.8,40.6,33.9,40.6,33.9z"/>
	<path class="st12" d="M40.2,34.5c0.1-0.1,0.1-0.1,0.2-0.2C40.3,34.3,40.3,34.4,40.2,34.5z"/>
	<path class="st12" d="M40.1,34.8c0.1-0.1,0.1-0.1,0.2-0.2C40.2,34.7,40.1,34.8,40.1,34.8z"/>
	<path class="st12" d="M39.5,35.7c0.1-0.1,0.1-0.1,0.2-0.2C39.7,35.6,39.6,35.6,39.5,35.7z"/>
	<path class="st12" d="M39.2,36.4c0.1-0.1,0.1-0.1,0.2-0.2C39.3,36.3,39.2,36.3,39.2,36.4z"/>
	<path class="st12" d="M39,36.6c0.1-0.1,0.1-0.1,0.2-0.2C39.1,36.4,39.1,36.5,39,36.6z"/>
	<path class="st12" d="M38.8,36.9c0.1-0.1,0.1-0.1,0.2-0.2C39,36.8,38.9,36.8,38.8,36.9z"/>
	<path class="st12" d="M38.5,37.4c0.1-0.1,0.1-0.1,0.2-0.2C38.6,37.3,38.6,37.4,38.5,37.4z"/>
	<path class="st12" d="M38.3,37.8c0.1-0.1,0.1-0.1,0.2-0.2C38.4,37.6,38.4,37.7,38.3,37.8z"/>
	<path class="st12" d="M37.8,38.8c0.1-0.1,0.1-0.1,0.2-0.2C37.9,38.7,37.9,38.7,37.8,38.8z"/>
	<path class="st12" d="M37.6,39c0.1-0.1,0.1-0.1,0.2-0.2C37.7,38.9,37.7,38.9,37.6,39z"/>
	<path class="st12" d="M37.3,39.7c0.1-0.1,0.1-0.1,0.2-0.2C37.4,39.6,37.3,39.6,37.3,39.7z"/>
	<path class="st12" d="M36.8,40.5c0.1-0.1,0.1-0.1,0.2-0.2C36.9,40.4,36.8,40.5,36.8,40.5z"/>
	<path class="st12" d="M36.2,41.4c0.1-0.1,0.1-0.1,0.2-0.2C36.4,41.3,36.3,41.4,36.2,41.4z"/>
	<path class="st12" d="M35,43.5c0.1-0.1,0.1-0.1,0.2-0.2C35.1,43.4,35.1,43.4,35,43.5z"/>
	<path class="st12" d="M34.9,43.7c0.1-0.1,0.1-0.1,0.2-0.2C35,43.6,34.9,43.6,34.9,43.7z"/>
	<path class="st12" d="M34.5,44.4c0.1-0.1,0.1-0.1,0.2-0.2C34.6,44.3,34.6,44.3,34.5,44.4z"/>
	<path class="st12" d="M34,45.2c0.1-0.1,0.1-0.1,0.2-0.2C34.1,45.1,34,45.2,34,45.2z"/>
	<path class="st12" d="M33.5,46.1c0.1-0.1,0.1-0.1,0.2-0.2C33.6,46,33.5,46,33.5,46.1z"/>
	<path class="st12" d="M32.9,47c0.1-0.1,0.1-0.1,0.2-0.2C33.1,46.9,33,46.9,32.9,47z"/>
	<path class="st12" d="M31.7,49.1c0.1-0.1,0.1-0.1,0.2-0.2C31.8,48.9,31.8,49,31.7,49.1z"/>
	<path class="st12" d="M31.6,49.2c0.1-0.1,0.1-0.1,0.2-0.2C31.7,49.1,31.6,49.2,31.6,49.2z"/>
	<path class="st12" d="M31,50.1c0.1-0.1,0.1-0.1,0.2-0.2C31.1,50,31.1,50,31,50.1z"/>
	<path class="st12" d="M46.7,23.7c0.1-0.1,0.1-0.1,0.2-0.2C46.8,23.6,46.7,23.6,46.7,23.7z"/>
	<path class="st13" d="M19.4,22.7c7.8,0.5,16.8-0.5,24.5,0.5c-4.1,7.3-8.6,14.3-12.7,21.5c-0.2,0-0.5,0-0.7,0
		C26.7,37.3,22.2,29.9,19.4,22.7z M31.1,40.5c3.1-5.2,6.1-10.2,9.1-15.3c-2.3-0.2-16.3-0.1-17,0.1C25.8,30.3,28.4,35.3,31.1,40.5z"
		/>
	<path class="st14" d="M43.9,23.2c-6.2-1.1-13.5,0.2-20-0.5c6.7,0,13.4,0,20.2,0C44,22.9,44,23,43.9,23.2z"/>
	<path class="st14" d="M20.8,26.1c0.5,0.2,0.6,0.7,0.7,1.2C21.2,26.9,21,26.5,20.8,26.1z"/>
	<path class="st14" d="M30.5,44.7c0.2,0,0.5,0,0.7,0c-0.1,0.2-0.2,0.3-0.4,0.6C30.7,45.1,30.6,44.9,30.5,44.7z"/>
	<path class="st14" d="M26.3,36.9c0.4,0,0.3,0.3,0.3,0.5C26.6,37.2,26.5,37.1,26.3,36.9z"/>
	<path class="st14" d="M20.6,22.7c-0.2,0.2-0.5,0.2-0.7,0C20.1,22.7,20.4,22.7,20.6,22.7z"/>
	<path class="st14" d="M19.4,22.7c-0.1,0.1-0.1,0.2-0.2,0.3C19,22.7,19.2,22.7,19.4,22.7z"/>
	<path class="st14" d="M19.4,23.5c0.1,0.1,0.1,0.1,0.2,0.2C19.5,23.6,19.5,23.6,19.4,23.5z"/>
	<path class="st14" d="M19.6,23.9c0.1,0.1,0.1,0.1,0.2,0.2C19.7,24,19.6,23.9,19.6,23.9z"/>
	<path class="st14" d="M19.7,24.2c0.1,0.1,0.1,0.1,0.2,0.2C19.9,24.3,19.8,24.3,19.7,24.2z"/>
	<path class="st14" d="M19.9,24.6c0.1,0.1,0.1,0.1,0.2,0.2C20,24.7,20,24.6,19.9,24.6z"/>
	<path class="st14" d="M42,26.5c0.1-0.1,0.1-0.1,0.2-0.2C42.1,26.4,42,26.4,42,26.5z"/>
	<path class="st14" d="M22.2,28.9c0.1,0.1,0.1,0.1,0.2,0.2C22.3,29,22.2,29,22.2,28.9z"/>
	<path class="st14" d="M22.4,29.3c0.1,0.1,0.1,0.1,0.2,0.2C22.5,29.4,22.4,29.3,22.4,29.3z"/>
	<path class="st14" d="M22.5,29.6c0.1,0.1,0.1,0.1,0.2,0.2C22.6,29.7,22.6,29.7,22.5,29.6z"/>
	<path class="st14" d="M22.7,30c0.1,0.1,0.1,0.1,0.2,0.2C22.8,30.1,22.8,30,22.7,30z"/>
	<path class="st14" d="M38.7,32c0.1-0.1,0.1-0.1,0.2-0.2C38.8,31.9,38.7,32,38.7,32z"/>
	<path class="st14" d="M24.6,33.6c0.1,0.1,0.1,0.1,0.2,0.2C24.7,33.7,24.7,33.7,24.6,33.6z"/>
	<path class="st14" d="M24.8,33.9c0.1,0.1,0.1,0.1,0.2,0.2C24.9,34.1,24.8,34,24.8,33.9z"/>
	<path class="st14" d="M25,34.3c0.1,0.1,0.1,0.1,0.2,0.2C25.1,34.4,25,34.4,25,34.3z"/>
	<path class="st14" d="M33.5,40.7c0.1-0.1,0.1-0.1,0.2-0.2C33.6,40.6,33.5,40.7,33.5,40.7z"/>
	<path class="st14" d="M32.2,42.8c0.1-0.1,0.1-0.1,0.2-0.2C32.4,42.7,32.3,42.8,32.2,42.8z"/>
	<path class="st14" d="M31.7,43.7c0.1-0.1,0.1-0.1,0.2-0.2C31.8,43.6,31.8,43.6,31.7,43.7z"/>
	<path class="st15" d="M31.1,40.5c-2.7-5.2-5.3-10.2-7.9-15.2c0.7-0.2,14.7-0.3,17-0.1C37.2,30.3,34.2,35.3,31.1,40.5z M31.7,36.2
		c0.6-1.8,6.1-8.5,4.5-8.9C24.3,26.9,26.8,27,31.7,36.2z"/>
	<path class="st16" d="M33.3,33.6c-0.6,0.8-0.9,1.8-1.6,2.6c-1.8-2.5-3-5.8-4.6-8.5c3.1-0.3,6.5-0.3,9.6,0c-0.2,0.3-0.3,0.7-0.5,0.9
		C35.3,30.2,34.2,31.9,33.3,33.6z M31.9,32.2c0.6-1,1-1.8,1.5-2.7c-1.2-0.2-2.3-0.1-2.8,0.1C30.9,30.4,31.3,31.2,31.9,32.2z"/>
	<path class="st17" d="M36.8,27.7c-3.1-0.3-6.5-0.3-9.6,0C29.5,27,34.5,27,36.8,27.7z"/>
	<path class="st17" d="M35.6,29.8c0.1-0.1,0.1-0.2,0.2-0.3C35.7,29.6,35.6,29.7,35.6,29.8z"/>
	<path class="st17" d="M35,30.6c0.1-0.1,0.1-0.2,0.2-0.3C35.1,30.4,35.1,30.5,35,30.6z"/>
	<path class="st17" d="M34.5,31.5c0.1-0.1,0.1-0.2,0.2-0.3C34.6,31.3,34.6,31.4,34.5,31.5z"/>
	<path class="st17" d="M33.8,32.7c0.1-0.1,0.1-0.2,0.2-0.3C33.9,32.5,33.9,32.6,33.8,32.7z"/>
	<path class="st17" d="M36.1,28.9c0.1-0.1,0.1-0.2,0.2-0.3C36.2,28.7,36.1,28.8,36.1,28.9z"/>
	<path class="st17" d="M33.3,33.6c0.1-0.1,0.1-0.2,0.2-0.3C33.4,33.4,33.3,33.5,33.3,33.6z"/>
	<path class="st17" d="M32.8,34.5c0.1-0.1,0.1-0.2,0.2-0.3C32.9,34.2,32.8,34.4,32.8,34.5z"/>
	<path class="st17" d="M36.3,28.6c0.1-0.1,0.1-0.1,0.2-0.2C36.4,28.5,36.3,28.5,36.3,28.6z"/>
	<path class="st17" d="M35.7,29.2c0-0.1,0.1-0.1,0.1-0.2C35.8,29.1,35.8,29.2,35.7,29.2z"/>
	<path class="st17" d="M34,32.2c0.1-0.1,0.1-0.1,0.2-0.2C34.1,32.1,34.1,32.1,34,32.2z"/>
	<path class="st17" d="M31.7,36.2c0.1-0.1,0.1-0.1,0.2-0.2C31.8,36.1,31.8,36.1,31.7,36.2z"/>
	<path class="st17" d="M31.5,36.2c0.1,0,0.1,0,0.2,0C31.7,36.2,31.6,36.2,31.5,36.2z"/>
	<path class="st18" d="M31.9,32.2c-0.5-1-0.9-1.7-1.4-2.5c0.6-0.3,1.6-0.3,2.8-0.1C32.9,30.4,32.4,31.2,31.9,32.2z"/>
</g>
</svg>
