<?xml version="1.0" encoding="UTF-8"?><svg id="Layer_1" xmlns="http://www.w3.org/2000/svg" xmlns:xlink="http://www.w3.org/1999/xlink" viewBox="0 0 50.27 57.8"><defs><style>.cls-1,.cls-2{fill:none;}.cls-3{clip-path:url(#clippath);}.cls-4{fill:#f6ec1d;}.cls-5{fill:#6899d1;}.cls-6{fill:#f04e4e;}.cls-7{fill:#fbac18;}.cls-8{fill:#86c440;}.cls-9{fill:#865da7;}.cls-10{fill:#09bed2;}.cls-11{fill:#6e4d9f;}.cls-12{fill:#5072b7;}.cls-2{stroke:#010101;stroke-miterlimit:10;stroke-width:.08px;}</style><clipPath id="clippath"><rect class="cls-1" width="50.27" height="57.8"/></clipPath></defs><g class="cls-3"><path class="cls-5" d="m50.43,39.86v3.5l-.04.03c-2.72,1.97-4.48-.74-5.48-2.46l2.06-1.99c.63.75,1.65,1.55,3.46.92Z"/><path class="cls-6" d="m50.43,29.03v5.4c-1.8.7-3.06-.14-3.77-.86-.94-.96-1.2-2.68-2.3-3.43-.74-.5-1.21.07-1.48.7l-2.56-.27c.54-1.05.83-2.56.98-3.1.27-.98.54-2.05,1.29-2.79.89-.89,1.99-.05,2.46.8.72,1.3,1.23,3.16,2.68,3.85.56.27,1.66.27,2.7-.3Z"/><path class="cls-7" d="m50.43,23.52v5.51c-1.04.57-2.14.57-2.7.3-1.45-.69-1.96-2.55-2.68-3.85-.47-.85-1.57-1.69-2.46-.8-.75.74-1.02,1.81-1.29,2.79-.15.54-.44,2.05-.98,3.1-.36.73-.85,1.24-1.48,1.08-.89-.23-1.1-1.9-1.2-2.64-.16-1.12-.33-2.24-.56-3.35-.08-.37-.7-3.25-1.15-5.01l2.77-.17c.17.45.4.87.76,1.13.68.5,1.61.33,2.22-.21.69-.62,1.06-1.48,1.68-2.16.73-.8,1.3.02,1.69.73.47.88.82,1.84,1.44,2.63.81,1.05,1.88,2.03,3.94.92Z"/><path class="cls-11" d="m50.43-.14v2.17c-.94,1.65-2.29,1.96-3.03,1.65-1.21-.5-1.74-2.7-2.07-3.82h5.1Z"/><path class="cls-9" d="m46.66,33.57c.71.72,1.97,1.56,3.77.86v5.43c-1.81.63-2.83-.17-3.46-.92-.07-.08-.13-.16-.19-.24-.62-.8-.97-1.77-1.48-2.64-.1-.17-.21-.35-.39-.44-.06-.03-.13-.05-.19-.05l1.94-2Z"/><path class="cls-4" d="m36.42,11.48c.89.31,1.65-.36,2.37-.79.05-.03.1-.06.15-.04.06.01.09.06.12.11.59,1.06,1,2.2,1.32,3.36.19.68.32,1.58.85,2.1.78.76,1.85-.22,2.37-.85.28-.32.88-1.47,1.41-1.37.1.02.17.09.24.16.77.79.9,1.91,1.54,2.77.62.84,1.74,1.8,3.64.43v6.16c-2.06,1.11-3.13.13-3.94-.92-.62-.79-.97-1.75-1.44-2.63-.39-.71-.96-1.53-1.69-.73-.62.68-.99,1.54-1.68,2.16-.61.54-1.54.71-2.22.21-.36-.26-.59-.68-.76-1.13-.16-.46-.27-.94-.37-1.35-.29-1.22-.41-2.74-1-3.85-.04-.09-.1-.18-.2-.18-.05,0-.1.03-.15.06-.68.41-1.34,1.03-2.19.78-.34-.1-.57-.34-.74-.65-.29-.51-.42-1.19-.58-1.67-.23-.7-.43-1.41-.77-2.07l2.84-.85c.21.34.48.64.88.78Z"/><path class="cls-12" d="m44.34,6.09c-.68-.55-.61-1.57-.85-2.34-.14-.45-.35-.98-.82-1.18-.61-.25-1.06.56-1.41.9-1.32,1.31-2.63.21-3.08-1.2-.15-.49-.66-1.79-1.11-2.41h8.26c.33,1.12.86,3.32,2.07,3.82.74.31,2.09,0,3.03-1.65v3.96c-.48.59-.91,1.64-2,1.64-.37,0-.73-.11-.99-.37-.32-.31-.55-.75-.8-1.11-.02-.02-.03-.05-.05-.06-.03-.01-.06,0-.09.01l-.18.06c-.64.26-1.44.36-1.98-.07Z"/><path class="cls-10" d="m35.99,4.35c-.89-1.2-2.41-3.28-3.3-4.49h4.38c.45.62.96,1.92,1.11,2.41.45,1.41,1.76,2.51,3.08,1.2.35-.34.8-1.15,1.41-.9.47.2.68.73.82,1.18.24.77.17,1.79.85,2.34.54.43,1.34.33,1.98.07l.18-.06s.06-.02.09-.01c.02.01.03.04.05.06.25.36.48.8.8,1.11.26.26.62.37.99.37,1.09,0,1.52-1.05,2-1.64v5.48c-1.38,1.42-2.5,1.02-3.02.35-.37-.47-.54-.97-.82-1.51-.17-.33-.33-.6-.7-.64-.18-.02-.36.06-.52.14-.67.34-1.34,1.01-2.14.94-.56-.05-.98-.38-1.3-.82-.64-.91-.8-2.09-1.18-3.1-.03-.08-.08-.18-.17-.17-.05.01-.08.05-.11.08-.31.36-.67.67-1.07.93-.39.24-.89.44-1.31.24-.78-.36-.95-1.56-1.27-2.24-.22-.48-.53-.9-.83-1.32Z"/><path class="cls-7" d="m34.79,15.94c.85.25,1.51-.37,2.19-.78.05-.03.1-.06.15-.06.1,0,.16.09.2.18.59,1.11.71,2.63,1,3.85.1.41.21.89.37,1.35l-2.77.17c-.2-.8-.37-1.37-.43-1.37-.69.17-1.45.17-2.1-.11-1.36-.58-1.57-2.18-1.99-3.4l2.64-.48c.17.31.4.55.74.65Z"/><path class="cls-6" d="m37.64,29.01c.1.74.31,2.41,1.2,2.64.63.16,1.12-.35,1.48-1.08l2.56.27c-.09.21-.16.43-.21.61-.42,1.53-1.12,2.86-1.83,4.26-.71,1.38-1.13,2.98-1.38,4.51-.11.73-.31,4.71-1.76,4.23-.36-.11-.52-.56-.6-1.05-.07-.49-.06-1.02-.08-1.32-.06-.98.01-1.95-.24-2.92-.37-1.42-.87-2.84-1.11-4.29-.26-1.49-.42-2.96-.57-4.48-.03-.33-.07-.65-.12-.98l2.66-.4Z"/><path class="cls-9" d="m37.1,43.4c.08.49.24.94.6,1.05,1.45.48,1.65-3.5,1.76-4.23.25-1.53.67-3.13,1.38-4.51.71-1.4,1.41-2.73,1.83-4.26.05-.18.12-.4.21-.61.27-.63.74-1.2,1.48-.7,1.1.75,1.36,2.47,2.3,3.43l-1.94,2c-.97,0-2.22,3.52-2.43,4.11-.87,2.57-1.18,5.29-1.75,7.94-.22,1.04-.52,2.25-1.36,2.98-.76.67-2.09.95-2.97.35-.91-.62-1.15-1.98-1.21-2.99-.01-.23-.03-.46-.04-.69-.06-1.22-.12-2.44-.28-3.64l2.42-.23Z"/><path class="cls-8" d="m36.82,5.67c.32.68.49,1.88,1.27,2.24.42.2.92,0,1.31-.24.4-.26.76-.57,1.07-.93.03-.03.06-.07.11-.08.09-.01.14.09.17.17.38,1.01.54,2.19,1.18,3.1.32.44.74.77,1.3.82.8.07,1.47-.6,2.14-.94.16-.08.34-.16.52-.14.37.04.53.31.7.64.28.54.45,1.04.82,1.51.52.67,1.64,1.07,3.02-.35v5.89c-1.9,1.37-3.02.41-3.64-.43-.64-.86-.77-1.98-1.54-2.77-.07-.07-.14-.14-.24-.16-.53-.1-1.13,1.05-1.41,1.37-.52.63-1.59,1.61-2.37.85-.53-.52-.66-1.42-.85-2.1-.32-1.16-.73-2.3-1.32-3.36-.03-.05-.06-.1-.12-.11-.05-.02-.1.01-.15.04-.72.43-1.48,1.1-2.37.79-.4-.14-.67-.44-.88-.78l-.18-.36c-.47-1.05-.45-2.38-1.11-3.34-.59-.85-1.37-1.59-2.12-2.31-.77-.73-1.46-1.55-2.04-2.45-.52-.8-.87-1.75-1.63-2.38h4.23c.89,1.21,2.41,3.29,3.3,4.49.3.42.61.84.83,1.32Z"/><path class="cls-5" d="m35,47.96c.06,1.01.3,2.37,1.21,2.99.88.6,2.21.32,2.97-.35.84-.73,1.14-1.94,1.36-2.98.57-2.65.88-5.37,1.75-7.94.21-.59,1.46-4.11,2.43-4.11.06,0,.13.02.19.05.18.09.29.27.39.44.51.87.86,1.84,1.48,2.64.06.08.12.16.19.24l-2.06,1.99c-.59,2.68-.83,5.43-1.45,8.11-.47,2.05-.93,4.29-2.62,5.71-1.78,1.49-4.44,1.62-6.36.35-2.17-1.44-2.09-4.29-2.22-6.65-.02-.34-.04-.68-.06-1.03l2.76-.15c.01.23.03.46.04.69Z"/><path class="cls-4" d="m35.36,10.34l.18.36-2.84.85c-.11-.22-.24-.43-.38-.63-.57-.81-1.21-1.56-1.76-2.39-.51-.78-.76-1.66-1.26-2.44-.99-1.55-2.16.57-2.63,1.39-.57.99-1.7,2.97-3.08,2.85-.82-.07-1.4-.81-1.7-1.51-.46-1.08-1.05-2.06-1.68-3.03l2.69-1.02c.61.4,1.52.2,2.05-.28.8-.72,1.22-2,1.76-2.92.36-.61.76-1.25,1.3-1.71h.45c.76.63,1.11,1.58,1.63,2.38.58.9,1.27,1.72,2.04,2.45.75.72,1.53,1.46,2.12,2.31.66.96.64,2.29,1.11,3.34Z"/><path class="cls-4" d="m19.56,4.82c-.84-1.25-2.27-3.44-2.63-4.96h3.29c.38.52,1.24,1.93,1.48,2.52.28.73.43,1.63.99,2.22.07.07.14.12.21.17l-2.69,1.02c-.22-.32-.43-.65-.65-.97Z"/><path class="cls-8" d="m21.7,2.38c-.24-.59-1.1-2-1.48-2.52h7.79c-.54.46-.94,1.1-1.3,1.71-.54.92-.96,2.2-1.76,2.92-.53.48-1.44.68-2.05.28-.07-.05-.14-.1-.21-.17-.56-.59-.71-1.49-.99-2.22Z"/><path class="cls-5" d="m32.84,36.9c.51,1.77,1.17,3.5,1.58,5.3.11.47.19.95.26,1.43.16,1.2.22,2.42.28,3.64l-2.76.15c-.14-2.39-.36-4.8-1.14-7.08-.6-1.77-1.34-3.52-1.51-5.41-.14-1.49.04-2.99-.05-4.49-.05-.83-.21-3.98-1.79-3.1-1.22.67-1.66,2.76-2.27,3.91-.87,1.62-2.04,3.09-3.94,3.46-1.75.33-3.71.03-5.01-1.28-1.86-1.88-1.76-4.92-1.98-7.36-.25-2.65-.23-5.63-.95-8.27l2.32-.64c.28.96.5,1.93.68,2.91.46,2.52.41,5.12.98,7.63.45,1.98,2.02,3.21,4.07,2.55,1.36-.43,2.16-2.11,2.67-3.32.64-1.53,2.1-6.42,4.37-4.17,1.2,1.19,2.23,2.75,2.88,4.3.58,1.38.72,2.9.76,4.37.05,1.79.05,3.74.55,5.47Z"/><path class="cls-7" d="m33.47,13.62c.16.48.29,1.16.58,1.67l-2.64.48c-.49-1.44-1.23-3.15-2.47-4.11-1.3-1-2.49,1.15-3.05,2.09-.5.83-1.04,1.79-1.82,2.4-1.55,1.2-2.52-.23-2.97-1.6-.41-1.26-.85-2.5-1.48-3.67-.78-1.44-1.85-2.71-2.73-4.09-.75-1.18-1.39-2.39-2.04-3.63-.19-.35-.37-.7-.62-1.02-.04-.06-.1-.12-.17-.13V-.14h2.87c.36,1.52,1.79,3.71,2.63,4.96.22.32.43.65.65.97.63.97,1.22,1.95,1.68,3.03.3.7.88,1.44,1.7,1.51,1.38.12,2.51-1.86,3.08-2.85.47-.82,1.64-2.94,2.63-1.39.5.78.75,1.66,1.26,2.44.55.83,1.19,1.58,1.76,2.39.14.2.27.41.38.63.34.66.54,1.37.77,2.07Z"/><path class="cls-7" d="m14.06,2.01c-.09-.01-.17.06-.23.13-.79.84-1.53,2.47-2.92,2.36-1.66-.14-1.56-3.43-1.71-4.64h4.86v2.15Z"/><path class="cls-6" d="m37.08,25.66c.23,1.11.4,2.23.56,3.35l-2.66.4c-.34-2.28-1.03-4.5-1.78-6.67-.05-.14-.11-.3-.25-.37-.1-.05-.22-.03-.34-.02-1.18.08-2.19-.9-2.72-1.97-.53-1.06-.7-2.95-1.62-3.72-1.04-.88-1.79.63-2.27,1.31-.42.59-.98,1.07-1.41,1.66-1,1.37-1.09,3.53-2.42,4.64-1.03.84-1.95-.1-2.25-1.07-.28-.91-.25-1.87-.4-2.8-.36-2.31-.97-4.6-2.04-6.7-1.28-2.49-2.71-4.86-4.49-7.03-.04-.05-.1-.11-.17-.11-.06,0-.1.04-.14.07-.93.82-1.48,1.89-2.15,2.89-.25.37-.54.72-.93.93-1.61.9-1.94-.84-1.97-2.01-.07-2.48-.47-6.2-1.24-8.58h2.81c.15,1.21.05,4.5,1.71,4.64,1.39.11,2.13-1.52,2.92-2.36.06-.07.14-.14.23-.13.07.01.13.07.17.13.25.32.43.67.62,1.02.65,1.24,1.29,2.45,2.04,3.63.88,1.38,1.95,2.65,2.73,4.09.63,1.17,1.07,2.41,1.48,3.67.45,1.37,1.42,2.8,2.97,1.6.78-.61,1.32-1.57,1.82-2.4.56-.94,1.75-3.09,3.05-2.09,1.24.96,1.98,2.67,2.47,4.11.42,1.22.63,2.82,1.99,3.4.65.28,1.41.28,2.1.11.06,0,.23.57.43,1.37.45,1.76,1.07,4.64,1.15,5.01Z"/><path class="cls-9" d="m37.02,42.08c.02.3.01.83.08,1.32l-2.42.23c-.07-.48-.15-.96-.26-1.43-.41-1.8-1.07-3.53-1.58-5.3-.5-1.73-.5-3.68-.55-5.47-.04-1.47-.18-2.99-.76-4.37-.65-1.55-1.68-3.11-2.88-4.3-2.27-2.25-3.73,2.64-4.37,4.17-.51,1.21-1.31,2.89-2.67,3.32-2.05.66-3.62-.57-4.07-2.55-.57-2.51-.52-5.11-.98-7.63-.18-.98-.4-1.95-.68-2.91-.51-1.75-1.23-3.44-2.27-4.96-.37-.53-.95-1.16-1.59-.7-.21.15-.37.35-.52.56-.9,1.24-1.15,2.75-2.56,3.59-.9.54-2.31.43-3.05-.36-1.28-1.38-.96-3.83-1-5.54-.08-2.89-.81-7.06-1.37-9.89h2.87c.77,2.38,1.17,6.1,1.24,8.58.03,1.17.36,2.91,1.97,2.01.39-.21.68-.56.93-.93.67-1,1.22-2.07,2.15-2.89.04-.03.08-.07.14-.07.07,0,.13.06.17.11,1.78,2.17,3.21,4.54,4.49,7.03,1.07,2.1,1.68,4.39,2.04,6.7.15.93.12,1.89.4,2.8.3.97,1.22,1.91,2.25,1.07,1.33-1.11,1.42-3.27,2.42-4.64.43-.59.99-1.07,1.41-1.66.48-.68,1.23-2.19,2.27-1.31.92.77,1.09,2.66,1.62,3.72.53,1.07,1.54,2.05,2.72,1.97.12-.01.24-.03.34.02.14.07.2.23.25.37.75,2.17,1.44,4.39,1.78,6.67.05.33.09.65.12.98.15,1.52.31,2.99.57,4.48.24,1.45.74,2.87,1.11,4.29.25.97.18,1.94.24,2.92Z"/><path class="cls-5" d="m12.19,16.32c-1.13,1.18-2,2.3-3.51,3.1-2.79,1.47-6.06-.29-6.68-3.35-.51-2.49-.18-5.12-.26-7.65C1.66,5.79,1.25,2.53.76-.06l-.02-.08h2.78c.56,2.83,1.29,7,1.37,9.89.04,1.71-.28,4.16,1,5.54.74.79,2.15.9,3.05.36,1.41-.84,1.66-2.35,2.56-3.59.15-.21.31-.41.52-.56.64-.46,1.22.17,1.59.7,1.04,1.52,1.76,3.21,2.27,4.96l-2.32.64c-.11-.37-.22-.74-.36-1.1-.13-.32-.41-.68-.74-.58-.11.04-.19.12-.27.2Z"/><path class="cls-2" d="m50.43,39.86v3.5l-.04.03c-2.72,1.97-4.48-.74-5.48-2.46-.59,2.68-.83,5.43-1.45,8.11-.47,2.05-.93,4.29-2.62,5.71-1.78,1.49-4.44,1.62-6.36.35-2.17-1.44-2.09-4.29-2.22-6.65-.02-.34-.04-.68-.06-1.03-.14-2.39-.36-4.8-1.14-7.08-.6-1.77-1.34-3.52-1.51-5.41-.14-1.49.04-2.99-.05-4.49-.05-.83-.21-3.98-1.79-3.1-1.22.67-1.66,2.76-2.27,3.91-.87,1.62-2.04,3.09-3.94,3.46-1.75.33-3.71.03-5.01-1.28-1.86-1.88-1.76-4.92-1.98-7.36-.25-2.65-.23-5.63-.95-8.27-.11-.37-.22-.74-.36-1.1-.13-.32-.41-.68-.74-.58-.11.04-.19.12-.27.2-1.13,1.18-2,2.3-3.51,3.1-2.79,1.47-6.06-.29-6.68-3.35-.51-2.49-.18-5.12-.26-7.65C1.66,5.79,1.25,2.53.76-.06l-.02-.08h49.69v40Z"/><path class="cls-2" d="m3.52-.14c.56,2.83,1.29,7,1.37,9.89.04,1.71-.28,4.16,1,5.54.74.79,2.15.9,3.05.36,1.41-.84,1.66-2.35,2.56-3.59.15-.21.31-.41.52-.56.64-.46,1.22.17,1.59.7,1.04,1.52,1.76,3.21,2.27,4.96.28.96.5,1.93.68,2.91.46,2.52.41,5.12.98,7.63.45,1.98,2.02,3.21,4.07,2.55,1.36-.43,2.16-2.11,2.67-3.32.64-1.53,2.1-6.42,4.37-4.17,1.2,1.19,2.23,2.75,2.88,4.3.58,1.38.72,2.9.76,4.37.05,1.79.05,3.74.55,5.47.51,1.77,1.17,3.5,1.58,5.3.11.47.19.95.26,1.43.16,1.2.22,2.42.28,3.64.01.23.03.46.04.69.06,1.01.3,2.37,1.21,2.99.88.6,2.21.32,2.97-.35.84-.73,1.14-1.94,1.36-2.98.57-2.65.88-5.37,1.75-7.94.21-.59,1.46-4.11,2.43-4.11.06,0,.13.02.19.05.18.09.29.27.39.44.51.87.86,1.84,1.48,2.64.06.08.12.16.19.24.63.75,1.65,1.55,3.46.92"/><path class="cls-2" d="m6.39-.14c.77,2.38,1.17,6.1,1.24,8.58.03,1.17.36,2.91,1.97,2.01.39-.21.68-.56.93-.93.67-1,1.22-2.07,2.15-2.89.04-.03.08-.07.14-.07.07,0,.13.06.17.11,1.78,2.17,3.21,4.54,4.49,7.03,1.07,2.1,1.68,4.39,2.04,6.7.15.93.12,1.89.4,2.8.3.97,1.22,1.91,2.25,1.07,1.33-1.11,1.42-3.27,2.42-4.64.43-.59.99-1.07,1.41-1.66.48-.68,1.23-2.19,2.27-1.31.92.77,1.09,2.66,1.62,3.72.53,1.07,1.54,2.05,2.72,1.97.12-.01.24-.03.34.02.14.07.2.23.25.37.75,2.17,1.44,4.39,1.78,6.67.05.33.09.65.12.98.15,1.52.31,2.99.57,4.48.24,1.45.74,2.87,1.11,4.29.25.97.18,1.94.24,2.92.02.3.01.83.08,1.32.08.49.24.94.6,1.05,1.45.48,1.65-3.5,1.76-4.23.25-1.53.67-3.13,1.38-4.51.71-1.4,1.41-2.73,1.83-4.26.05-.18.12-.4.21-.61.27-.63.74-1.2,1.48-.7,1.1.75,1.36,2.47,2.3,3.43.71.72,1.97,1.56,3.77.86"/><path class="cls-2" d="m9.2-.14c.15,1.21.05,4.5,1.71,4.64,1.39.11,2.13-1.52,2.92-2.36.06-.07.14-.14.23-.13.07.01.13.07.17.13.25.32.43.67.62,1.02.65,1.24,1.29,2.45,2.04,3.63.88,1.38,1.95,2.65,2.73,4.09.63,1.17,1.07,2.41,1.48,3.67.45,1.37,1.42,2.8,2.97,1.6.78-.61,1.32-1.57,1.82-2.4.56-.94,1.75-3.09,3.05-2.09,1.24.96,1.98,2.67,2.47,4.11.42,1.22.63,2.82,1.99,3.4.65.28,1.41.28,2.1.11.06,0,.23.57.43,1.37.45,1.76,1.07,4.64,1.15,5.01.23,1.11.4,2.23.56,3.35.1.74.31,2.41,1.2,2.64.63.16,1.12-.35,1.48-1.08.54-1.05.83-2.56.98-3.1.27-.98.54-2.05,1.29-2.79.89-.89,1.99-.05,2.46.8.72,1.3,1.23,3.16,2.68,3.85.56.27,1.66.27,2.7-.3"/><path class="cls-2" d="m16.93-.14c.36,1.52,1.79,3.71,2.63,4.96.22.32.43.65.65.97.63.97,1.22,1.95,1.68,3.03.3.7.88,1.44,1.7,1.51,1.38.12,2.51-1.86,3.08-2.85.47-.82,1.64-2.94,2.63-1.39.5.78.75,1.66,1.26,2.44.55.83,1.19,1.58,1.76,2.39.14.2.27.41.38.63.34.66.54,1.37.77,2.07.16.48.29,1.16.58,1.67.17.31.4.55.74.65.85.25,1.51-.37,2.19-.78.05-.03.1-.06.15-.06.1,0,.16.09.2.18.59,1.11.71,2.63,1,3.85.1.41.21.89.37,1.35.17.45.4.87.76,1.13.68.5,1.61.33,2.22-.21.69-.62,1.06-1.48,1.68-2.16.73-.8,1.3.02,1.69.73.47.88.82,1.84,1.44,2.63.81,1.05,1.88,2.03,3.94.92"/><path class="cls-2" d="m28.46-.14c.76.63,1.11,1.58,1.63,2.38.58.9,1.27,1.72,2.04,2.45.75.72,1.53,1.46,2.12,2.31.66.96.64,2.29,1.11,3.34l.18.36c.21.34.48.64.88.78.89.31,1.65-.36,2.37-.79.05-.03.1-.06.15-.04.06.01.09.06.12.11.59,1.06,1,2.2,1.32,3.36.19.68.32,1.58.85,2.1.78.76,1.85-.22,2.37-.85.28-.32.88-1.47,1.41-1.37.1.02.17.09.24.16.77.79.9,1.91,1.54,2.77.62.84,1.74,1.8,3.64.43"/><path class="cls-2" d="m20.22-.14c.38.52,1.24,1.93,1.48,2.52.28.73.43,1.63.99,2.22.07.07.14.12.21.17.61.4,1.52.2,2.05-.28.8-.72,1.22-2,1.76-2.92.36-.61.76-1.25,1.3-1.71"/><path class="cls-2" d="m32.69-.14c.89,1.21,2.41,3.29,3.3,4.49.3.42.61.84.83,1.32.32.68.49,1.88,1.27,2.24.42.2.92,0,1.31-.24.4-.26.76-.57,1.07-.93.03-.03.06-.07.11-.08.09-.01.14.09.17.17.38,1.01.54,2.19,1.18,3.1.32.44.74.77,1.3.82.8.07,1.47-.6,2.14-.94.16-.08.34-.16.52-.14.37.04.53.31.7.64.28.54.45,1.04.82,1.51.52.67,1.64,1.07,3.02-.35"/><path class="cls-2" d="m37.07-.14c.45.62.96,1.92,1.11,2.41.45,1.41,1.76,2.51,3.08,1.2.35-.34.8-1.15,1.41-.9.47.2.68.73.82,1.18.24.77.17,1.79.85,2.34.54.43,1.34.33,1.98.07l.18-.06s.06-.02.09-.01c.02.01.03.04.05.06.25.36.48.8.8,1.11.26.26.62.37.99.37,1.09,0,1.52-1.05,2-1.64"/><path class="cls-2" d="m45.33-.14c.33,1.12.86,3.32,2.07,3.82.74.31,2.09,0,3.03-1.65"/></g></svg>