<?xml version="1.0" encoding="UTF-8"?><svg id="Layer_1" xmlns="http://www.w3.org/2000/svg" xmlns:xlink="http://www.w3.org/1999/xlink" viewBox="0 0 64 35.99"><defs><style>.cls-1,.cls-2{fill:none;}.cls-3{clip-path:url(#clippath);}.cls-4{fill:#f6ec1d;}.cls-5{fill:#6899d1;}.cls-6{fill:#f04e4e;}.cls-7{fill:#fbac18;}.cls-8{fill:#86c440;}.cls-9{fill:#865da7;}.cls-10{fill:#09bed2;}.cls-11{fill:#6e4d9f;}.cls-12{fill:#5072b7;}.cls-2{stroke:#010101;stroke-linecap:round;stroke-linejoin:round;stroke-width:.08px;}</style><clipPath id="clippath"><rect class="cls-1" width="64" height="35.99"/></clipPath></defs><g class="cls-3"><path class="cls-5" d="m62.46-.43l-.1.24c-.47,1.1-.72,2.38-1.02,3.54-.57,2.22-1.39,5.13-4.01,5.77-1.21.3-2.57,0-3.4-.94-.51-.58-1.07-1.37-1.96-1.26-.72.09-1.1.69-1.33,1.31-.61,1.6-.72,3.27-.97,4.95-.44,3.04-.33,8.68-4.58,9.17-1.11.12-2.42-.12-3.25-.9-.88-.83-1.23-1.94-1.52-3.07-.15-.57-.54-2.13-1.47-1.81-.45.15-.7.67-.86,1.06-.38.93-.68,1.88-1,2.83l-1.7-.55c.16-.5.29-1.02.43-1.53.24-.92.49-1.86,1.06-2.64.57-.76,1.61-1.19,2.59-1.15.59.02,1.16.23,1.6.63.72.67,1.18,1.66,1.49,2.55.24.68.46,1.44,1.19,1.7,1.05.39,1.97.05,2.58-.87.74-1.12.82-2.46.97-3.76.16-1.42.49-2.87.8-4.28.24-1.09.51-2.28,1.02-3.31.17-.34.37-.67.61-.97.81-1.04,2.02-1.89,3.43-1.58.93.2,1.36.97,1.89,1.65.8,1,2.27.88,3.06-.05.72-.85,1.06-2.07,1.39-3.11.37-1.14.88-2.55,1.42-3.62h1.63Z"/><path class="cls-9" d="m58.6-.43h2.23c-.55,1.07-1.05,2.48-1.42,3.62-.33,1.04-.67,2.26-1.39,3.11-.79.93-2.26,1.06-3.06.05-.54-.68-.97-1.45-1.89-1.65-1.41-.31-2.62.54-3.43,1.58-.24.3-.44.63-.61.97l-1.57-.84c.66-1.27,1.18-2.59,1.7-3.93.17-.45.37-.62.74-.3.35.29.76.52,1.22.57.58.06.98-.24,1.47-.52.94-.52,1.93-.15,2.34.82.21.49.55,1.17,1.16,1.25.8.12,1.19-.74,1.43-1.32.39-.96.78-2.45,1.1-3.43Z"/><path class="cls-6" d="m56.63-.43h1.97c-.32.98-.71,2.47-1.1,3.43-.24.58-.63,1.44-1.43,1.32-.6-.08-.95-.77-1.16-1.25-.41-.97-1.4-1.34-2.34-.82-.49.27-.88.58-1.47.52-.46-.05-.87-.29-1.22-.57-.38-.32-.57-.14-.74.3-.53,1.34-1.05,2.65-1.7,3.93-.09.18-.19.36-.29.54-.19.35-.4.69-.57,1.06-.94,1.89-.91,3.95-1.13,5.99-.07.68-.1,1.86-.75,2.28-.95.61-1.28-1.19-1.53-1.73-.35-.78-.86-1.63-1.75-1.9-.45-.13-.9.2-1.33.37-.23.08-.44.12-.65.12-.62,0-1.19-.32-1.79-.56-.75-.3-1.26.42-1.6.97-.66,1.07-1.41,2.03-2,3.15-.55,1.07-.85,2.26-1.51,3.26-.69,1.05-2.05.72-2.79-.11-.64-.71-.99-1.76-1.82-2.31-.45-.3-.74.04-.9.41l-1.55-.15c.32-.63.5-1.53.59-1.85.16-.58.33-1.22.79-1.66.54-.52,1.21-.03,1.5.48.55.97,1.29,3.1,2.86,2.11.57-.36.87-.99,1.17-1.56.34-.65.75-1.26,1.22-1.82.48-.59,1.02-1.13,1.39-1.79.25-.45.54-1.28,1.02-1.67.21-.16.45-.24.74-.19.63.13.93.8,1.39,1.16.57.45,1.47.46,2.08.08.45-.29.78-.72,1.08-1.16.05-.08.12-.15.2-.16.08,0,.15.04.2.09.43.37.54,1.02.85,1.47.49.74,1.11.41,1.4-.32.27-.68.42-1.4.53-2.13.1-.67.11-1.42.35-2.05.22-.6.69-1.07,1.07-1.57.39-.5.65-1.1.89-1.69.51-1.24,1-2.84,1.65-4.03h1.86c.15.51.79,1.31,1.35,1.32.61.01,1.14-.83,1.39-1.32h1.43c.13.4.6,1.73,1.16,1.72.52,0,.89-1.35,1.01-1.72Z"/><path class="cls-7" d="m54.46-.43h2.17c-.12.37-.49,1.72-1.01,1.72-.57.01-1.03-1.32-1.16-1.72Z"/><path class="cls-7" d="m50.29-.43h2.74c-.25.49-.78,1.33-1.39,1.32-.56-.01-1.21-.81-1.35-1.32Z"/><path class="cls-9" d="m47.44,6.42l1.57.84c-.52,1.03-.78,2.22-1.02,3.31-.31,1.41-.63,2.86-.8,4.28-.15,1.29-.23,2.64-.97,3.76-.61.91-1.53,1.25-2.58.87-.74-.27-.96-1.03-1.19-1.7-.31-.9-.77-1.89-1.49-2.55-.43-.4-1-.61-1.6-.63l.08-1.45c.21,0,.42-.04.65-.12.44-.17.88-.5,1.33-.37.89.27,1.4,1.12,1.75,1.9.24.53.58,2.34,1.53,1.73.66-.42.69-1.6.75-2.28.21-2.04.19-4.1,1.13-5.99.18-.36.38-.71.57-1.06.1-.18.19-.36.29-.54Z"/><path class="cls-7" d="m45.97-.43h2.46c-.65,1.19-1.14,2.79-1.65,4.03-.24.59-.5,1.18-.89,1.69-.38.5-.85.97-1.07,1.57-.24.63-.24,1.38-.35,2.05-.11.72-.26,1.44-.53,2.13-.29.73-.91,1.06-1.4.32-.31-.45-.42-1.1-.85-1.47-.05-.05-.12-.1-.2-.09-.09,0-.15.08-.2.16-.3.43-.63.87-1.08,1.16-.61.39-1.51.37-2.08-.08-.47-.37-.76-1.03-1.39-1.16-.29-.05-.53.03-.74.19l-1.56-.65c.27-.28.53-.58.75-.92.35-.55.75-1.46,1.58-1.31.66.12.92.8,1.3,1.25.4.45,1.12.64,1.67.36.33-.17.58-.47.77-.79s.3-.67.45-1.01c.27.64,1,.83,1.53.36.69-.6.7-1.84.88-2.66.02-.12.05-.24.1-.36.17-.4.58-.64.91-.93.97-.87,1.35-2.57,1.58-3.82Z"/><path class="cls-4" d="m43.74-.43h2.23c-.23,1.26-.61,2.96-1.58,3.82-.33.29-.74.53-.91.93-.05.11-.08.23-.1.36-.18.83-.18,2.06-.88,2.66-.54.46-1.27.28-1.53-.36-.15.34-.27.69-.45,1.01s-.43.62-.77.79c-.55.29-1.28.1-1.67-.36-.38-.45-.65-1.13-1.3-1.25-.83-.15-1.23.76-1.58,1.31-.22.34-.47.64-.75.92-.45.46-.95.88-1.41,1.37-.53.58-.74,1.37-1.19,2-.44.62-1.39.95-2.13.62-.77-.34-1.01-1.22-1.37-1.88-.24-.42-.58-.9-1.03-.43-.38.4-.6.91-1.02,1.28-.37.32-.94.43-1.35.13-.21-.15-.36-.4-.46-.67-.1-.27-.16-.56-.23-.81-.18-.72-.25-1.63-.61-2.29-.02-.05-.06-.1-.12-.11-.03,0-.07.02-.09.04-.41.24-.82.61-1.33.46-.2-.06-.34-.2-.45-.38-.18-.3-.26-.71-.35-1-.13-.42-.26-.84-.47-1.22l1.73-.51c.13.21.29.39.54.47.54.18,1-.21,1.44-.48.03-.01.06-.03.09-.02.04,0,.05.04.07.07.36.62.61,1.3.8,1.99.12.4.19.94.52,1.25.47.45,1.12-.13,1.44-.5.17-.2.54-.87.86-.81.05,0,.1.05.15.09.47.47.55,1.14.94,1.65.37.48.95.67,1.49.3.44-.3.56-.75.82-1.18.28-.47.72-.84,1.15-1.17.86-.67,1.63-1.37,2.09-2.36.4-.86,1.43-2.35,2.37-1.04.4.55.67,1.97,1.72,1.44.4-.21.56-.68.72-1.1,0-.02.02-.05.04-.06.03-.01.07,0,.09.03.38.3.85.83,1.32.29.43-.49.22-1.35.52-1.92.19-.36.55-.62.84-.91.53-.53,1.01-1.72,1.15-2.44Z"/><path class="cls-8" d="m41.31-.43h2.43c-.14.72-.62,1.91-1.15,2.44-.29.29-.65.55-.84.91-.3.57-.09,1.43-.52,1.92-.47.54-.94.01-1.32-.29-.02-.02-.06-.04-.09-.03-.02,0-.04.04-.04.06-.16.42-.32.89-.72,1.1-1.05.53-1.32-.88-1.72-1.44-.94-1.31-1.98.18-2.37,1.04-.46,1-1.22,1.7-2.09,2.36-.43.33-.87.7-1.15,1.17-.26.43-.38.88-.82,1.18-.54.37-1.13.18-1.49-.3-.39-.51-.47-1.18-.94-1.65-.04-.04-.09-.08-.15-.09-.32-.06-.69.62-.86.81-.32.37-.97.95-1.44.5-.32-.3-.4-.84-.52-1.25-.19-.69-.44-1.37-.8-1.99-.02-.03-.04-.07-.07-.07-.03,0-.06.01-.09.02-.44.26-.9.66-1.44.48-.24-.08-.41-.26-.54-.47-.04-.07-.08-.14-.11-.21-.29-.62-.27-1.41-.68-1.98-.36-.51-.83-.95-1.29-1.37-.47-.44-.89-.93-1.24-1.45-.32-.48-.53-1.05-.99-1.41h2.58c.54.71,1.47,1.95,2.01,2.67.18.25.37.5.51.78.19.41.3,1.12.77,1.34.26.11.56,0,.8-.15.24-.15.46-.33.65-.55.02-.02.04-.05.07-.05.05-.01.09.05.1.1.23.6.33,1.3.72,1.84.19.27.45.46.79.49.66.05,1.23-.86,1.84-.67.49.15.61.81.9,1.16.44.53,1.14.38,1.58-.05.47-.45.61-1.12.97-1.64.33-.49.82-.83,1.24-1.25.33-.34.61-.72.82-1.14.23-.45.46-1.06.93-1.31.65-.34,1.19.3,1.54.75.65.87,1.67.95,2.55.37.28-.18.49-.44.69-.71.33-.46.8-1.46,1.02-1.98Z"/><path class="cls-10" d="m39.54-.43h1.77c-.22.52-.68,1.51-1.02,1.98-.19.27-.41.53-.69.71-.88.58-1.9.49-2.55-.37-.35-.46-.89-1.1-1.54-.75-.47.26-.7.86-.93,1.31-.21.42-.49.8-.82,1.14-.41.42-.91.77-1.24,1.25-.36.52-.5,1.19-.97,1.64-.44.43-1.14.58-1.58.05-.29-.36-.41-1.01-.9-1.16-.61-.19-1.19.72-1.84.67-.34-.02-.6-.22-.79-.49-.39-.54-.49-1.24-.72-1.84-.02-.05-.05-.11-.1-.1-.03,0-.05.02-.07.05-.19.21-.41.4-.65.55-.24.15-.54.26-.8.15-.47-.22-.58-.93-.77-1.34-.13-.28-.32-.53-.51-.78-.54-.72-1.47-1.95-2.01-2.67h2.67c.27.37.58,1.13.68,1.43.27.84,1.07,1.49,1.88.72.21-.21.49-.69.86-.54.29.12.41.44.5.71.15.45.1,1.06.52,1.38.33.26.82.2,1.21.05.04-.02.07-.03.11-.04.02,0,.04-.01.05,0,.01,0,.02.02.03.03.54.77,1.18,1.48,2.11.67.62-.54.54-1.26.9-1.92.42-.75,1.53-1.66,1.82-2.48h3.2c.15.67.77.86,1.1.86.41,0,1.01-.43,1.1-.86Z"/><path class="cls-12" d="m37.34-.43h2.2c-.09.43-.68.86-1.1.86-.33,0-.96-.19-1.1-.86Z"/><path class="cls-9" d="m39.44,13.14l-.08,1.45c-.98-.05-2.02.39-2.59,1.15-.57.77-.82,1.72-1.06,2.64-.13.51-.27,1.03-.43,1.53-.27.84-.61,1.66-1.12,2.4-1.05,1.5-3.03,1.73-4.4.51-.58-.51-.88-1.12-1.27-1.76-.06-.1-.13-.2-.24-.26-.6-.31-1.46,2.04-1.6,2.41-.07.19-.13.39-.18.58-.15.51-.27,1.03-.38,1.55l-1.39-.27c.15-.61.2-1.31.23-1.53.15-.9.41-1.85.84-2.67.43-.84.86-1.62,1.11-2.54.03-.11.07-.24.13-.36.16-.37.45-.71.9-.41.83.55,1.18,1.6,1.82,2.31.75.83,2.11,1.16,2.79.11.66-1,.96-2.19,1.51-3.26.58-1.13,1.34-2.08,2-3.15.34-.55.85-1.27,1.6-.97.6.24,1.17.56,1.79.56Z"/><path class="cls-5" d="m35.28,19.91l1.7.55c-.33.98-.66,1.95-1.1,2.89-.41.9-1.05,1.94-1.97,2.42-.94.5-2.11.63-3.13.32-1.2-.37-1.91-1.09-2.53-2.13l-1.78-.17c.05-.19.12-.39.18-.58.13-.37.99-2.72,1.6-2.41.1.06.18.16.24.26.39.64.68,1.25,1.27,1.76,1.38,1.22,3.35.99,4.4-.51.51-.74.85-1.56,1.12-2.4Z"/><path class="cls-7" d="m34.44,9.41l1.56.65c-.48.39-.77,1.22-1.02,1.67-.37.66-.91,1.21-1.39,1.79-.47.56-.88,1.18-1.22,1.82-.3.56-.6,1.2-1.17,1.56-1.56.99-2.3-1.14-2.86-2.11-.29-.51-.96-1-1.5-.48-.46.44-.62,1.08-.79,1.66-.09.32-.27,1.22-.59,1.85-.23.43-.52.73-.91.64-.54-.13-.67-1.13-.73-1.56-.1-.67-.2-1.34-.34-2-.05-.22-.43-1.93-.7-2.98l1.69-.1c.1.27.25.52.46.67.41.3.98.19,1.35-.13.42-.36.65-.88,1.02-1.28.44-.48.79,0,1.03.43.36.66.6,1.54,1.37,1.88.74.33,1.69,0,2.13-.62.45-.63.66-1.42,1.19-2,.46-.49.96-.91,1.41-1.37Z"/><path class="cls-12" d="m32.14-.43h2c-.29.81-1.4,1.72-1.82,2.48-.36.66-.28,1.38-.9,1.92-.93.81-1.57.1-2.11-.67-.01-.01-.02-.02-.03-.03-.02,0-.04,0-.05,0-.04,0-.07.02-.11.04-.39.15-.88.21-1.21-.05-.41-.32-.37-.93-.52-1.38-.09-.27-.21-.59-.5-.71-.37-.15-.65.33-.86.54-.8.77-1.6.12-1.88-.72-.09-.29-.4-1.06-.68-1.43h5.03c.19.67.52,1.97,1.25,2.26,1.1.45,2.09-1.43,2.37-2.26Z"/><path class="cls-11" d="m28.51-.43h3.63c-.29.83-1.27,2.71-2.37,2.26-.73-.3-1.06-1.6-1.25-2.26Z"/><path class="cls-5" d="m26.48,23.79l1.78.17c-.36,1.6-.51,3.22-.88,4.82-.29,1.21-.57,2.54-1.6,3.39-1.08.88-2.7.96-3.87.21-1.32-.86-1.27-2.55-1.35-3.94-.01-.2-.02-.4-.04-.61l1.68-.09c0,.13.02.27.02.4.04.61.18,1.41.74,1.78.54.35,1.35.18,1.81-.21.51-.44.69-1.16.83-1.78.19-.86.33-1.73.51-2.59.11-.52.23-1.04.38-1.55Z"/><path class="cls-6" d="m25.47,17.81l1.55.15c-.05.12-.1.26-.13.36-.26.91-.68,1.7-1.11,2.54-.43.82-.69,1.77-.84,2.67-.03.22-.08.92-.23,1.53-.15.61-.4,1.13-.84.99-.22-.07-.32-.33-.37-.62-.04-.29-.04-.61-.05-.78-.04-.58,0-1.16-.15-1.74-.23-.84-.53-1.68-.68-2.54-.16-.89-.26-1.76-.35-2.67-.02-.2-.04-.39-.07-.58l1.62-.23c.06.43.19,1.43.73,1.56.39.1.68-.21.91-.64Z"/><path class="cls-9" d="m24.71,25.07l1.39.27c-.18.86-.32,1.73-.51,2.59-.13.62-.32,1.34-.83,1.78-.46.39-1.27.56-1.81.21-.55-.37-.7-1.18-.74-1.78,0-.14-.02-.27-.02-.4-.04-.72-.07-1.45-.17-2.17l1.47-.13c.05.29.15.55.37.62.44.14.69-.37.84-.99Z"/><path class="cls-7" d="m24.48,11.82l-1.69.1c-.12-.48-.23-.81-.26-.81-.43.1-.88.11-1.28-.07-.83-.34-.96-1.29-1.21-2.02l1.61-.28c.11.18.25.32.45.38.52.15.92-.22,1.33-.46.02-.02.06-.04.09-.04.06,0,.1.06.12.11.36.66.43,1.57.61,2.29.06.24.12.53.23.81Z"/><path class="cls-6" d="m23.83,16.88l-1.62.23c-.21-1.35-.63-2.67-1.08-3.96-.03-.08-.07-.18-.15-.21-.06-.03-.13-.02-.21-.02-.72.05-1.33-.53-1.66-1.16s-.43-1.75-.99-2.22c-.63-.52-1.09.38-1.38.78-.26.35-.6.64-.86.98-.61.81-.66,2.1-1.47,2.76-.63.5-1.19-.05-1.37-.64-.17-.54-.15-1.11-.24-1.66-.22-1.37-.59-2.73-1.24-3.97-.78-1.48-1.65-2.89-2.73-4.17-.02-.04-.06-.07-.1-.07-.04,0-.06.02-.09.05-.56.48-.9,1.12-1.3,1.71-.15.22-.33.43-.57.56-.98.53-1.18-.5-1.2-1.2-.04-1.47-.29-3.68-.75-5.09h1.71c.09.72.03,2.67,1.04,2.75.85.07,1.3-.9,1.78-1.4.04-.04.09-.08.14-.07.04,0,.08.04.1.08.15.18.26.4.38.61.4.73.79,1.45,1.24,2.15.54.82,1.19,1.58,1.66,2.43.38.69.65,1.43.9,2.17.27.81.86,1.66,1.81.95.47-.36.8-.93,1.11-1.43.34-.56,1.07-1.84,1.86-1.24.75.56,1.21,1.59,1.5,2.43.26.73.38,1.67,1.21,2.02.4.17.85.17,1.28.07.04,0,.14.34.26.81.27,1.05.65,2.76.7,2.98.14.66.24,1.33.34,2Z"/><path class="cls-9" d="m23.5,25.43l-1.47.13c-.04-.29-.09-.57-.16-.85-.25-1.07-.65-2.1-.96-3.15-.3-1.02-.3-2.19-.33-3.24-.02-.88-.11-1.78-.46-2.6-.4-.93-1.02-1.85-1.75-2.55-1.38-1.34-2.27,1.56-2.67,2.47-.3.72-.79,1.72-1.62,1.98-1.25.39-2.21-.34-2.48-1.52-.35-1.49-.32-3.03-.6-4.53-.11-.58-.24-1.16-.41-1.72-.31-1.05-.74-2.05-1.38-2.96-.23-.31-.58-.68-.97-.41-.13.09-.23.21-.32.33-.55.73-.7,1.63-1.56,2.13-.54.31-1.4.26-1.85-.22-.78-.81-.58-2.27-.61-3.29-.05-1.71-.5-4.19-.83-5.87h1.75c.47,1.41.71,3.62.75,5.09.02.69.22,1.73,1.2,1.2.24-.13.41-.34.57-.56.41-.59.74-1.23,1.3-1.71.03-.02.05-.05.09-.05.04,0,.08.04.1.07,1.08,1.28,1.95,2.7,2.73,4.17.65,1.24,1.02,2.6,1.24,3.97.09.55.07,1.12.24,1.66.18.58.74,1.14,1.37.64.81-.65.86-1.94,1.47-2.76.26-.34.6-.63.86-.98.29-.4.75-1.3,1.38-.78.56.46.66,1.59.99,2.22s.94,1.22,1.66,1.16c.07,0,.15-.01.21.02.09.04.12.13.15.21.46,1.29.88,2.61,1.08,3.96.03.2.05.39.07.58.09.9.19,1.78.35,2.67.15.86.45,1.7.68,2.54.15.58.11,1.16.15,1.74,0,.17,0,.49.05.78Z"/><path class="cls-4" d="m22.55,6l-1.73.51c-.07-.13-.14-.26-.23-.37-.35-.48-.74-.93-1.07-1.42-.31-.46-.46-.99-.77-1.45-.6-.91-1.32.34-1.6.83-.35.59-1.04,1.76-1.88,1.69-.51-.04-.85-.48-1.04-.9-.28-.64-.64-1.22-1.02-1.79l1.64-.61c.37.24.93.12,1.25-.16.49-.43.74-1.19,1.07-1.73.22-.36.46-.75.79-1.02h.27c.46.37.68.93.99,1.41.35.53.77,1.02,1.24,1.45.46.42.93.86,1.29,1.37.4.57.39,1.35.68,1.98.03.07.07.14.11.21Z"/><path class="cls-5" d="m22.2,27.73l-1.68.09c-.09-1.42-.22-2.85-.69-4.2-.37-1.06-.82-2.09-.93-3.22-.08-.88.03-1.78-.02-2.67-.03-.49-.13-2.36-1.09-1.84-.74.4-1.01,1.64-1.38,2.32-.53.97-1.24,1.84-2.4,2.05-1.07.2-2.26.02-3.05-.75-1.13-1.12-1.07-2.93-1.21-4.38-.15-1.57-.14-3.34-.58-4.91l1.42-.37c.17.56.3,1.14.41,1.72.28,1.5.25,3.03.6,4.53.27,1.18,1.23,1.91,2.48,1.52.83-.26,1.32-1.26,1.62-1.98.4-.91,1.28-3.81,2.67-2.47.73.71,1.36,1.63,1.75,2.55.35.81.44,1.72.46,2.6.03,1.06.03,2.22.33,3.24.31,1.05.71,2.08.96,3.15.07.28.12.56.16.85.1.71.13,1.44.17,2.17Z"/><path class="cls-7" d="m21.65,8.74l-1.61.28c-.3-.85-.75-1.87-1.5-2.43-.79-.6-1.52.68-1.86,1.24-.31.49-.63,1.07-1.11,1.43-.94.71-1.53-.14-1.81-.95-.25-.74-.52-1.48-.9-2.17-.47-.86-1.13-1.62-1.66-2.43-.46-.69-.85-1.42-1.24-2.15-.12-.21-.23-.42-.38-.61-.02-.04-.06-.07-.1-.08V-.43h1.75c.22.9,1.09,2.2,1.6,2.95.13.19.26.38.4.58.38.57.74,1.16,1.02,1.79.18.42.53.86,1.04.9.84.08,1.52-1.1,1.88-1.69.29-.49,1-1.75,1.6-.83.3.46.46.99.77,1.45.33.49.72.94,1.07,1.42.09.12.16.24.23.37.21.39.33.81.47,1.22.1.29.18.69.35,1Z"/><path class="cls-8" d="m13.23-.43h4.74c-.33.27-.57.65-.79,1.02-.33.55-.58,1.31-1.07,1.73-.32.29-.88.4-1.25.16-.04-.02-.09-.06-.13-.1-.34-.34-.43-.88-.61-1.31-.14-.36-.66-1.19-.9-1.5Z"/><path class="cls-4" d="m14.86,2.48l-1.64.61c-.13-.2-.26-.39-.4-.58-.51-.74-1.38-2.05-1.6-2.95h2c.23.31.75,1.14.9,1.5.18.43.27.97.61,1.31.04.04.09.08.13.1Z"/><path class="cls-5" d="m10.58,9.85l-1.42.37c-.06-.22-.13-.44-.22-.65-.07-.19-.24-.41-.44-.34-.07.02-.12.07-.16.12-.69.7-1.22,1.36-2.14,1.84-1.7.88-3.69-.17-4.07-1.99-.32-1.48-.11-3.04-.16-4.54-.05-1.56-.3-3.49-.6-5.03v-.05s1.68,0,1.68,0c.33,1.68.79,4.16.83,5.87.02,1.02-.17,2.48.61,3.29.45.48,1.31.53,1.85.22.86-.5,1.02-1.4,1.56-2.13.09-.12.19-.24.32-.33.39-.27.74.1.97.41.64.91,1.07,1.91,1.38,2.96Z"/><path class="cls-7" d="m9.47-.43V.85c-.05,0-.1.04-.14.07-.48.5-.93,1.47-1.78,1.4-1.01-.08-.95-2.03-1.04-2.75h2.96Z"/><path class="cls-2" d="m60.83-.43h1.63l-.1.24c-.47,1.1-.72,2.38-1.02,3.54-.57,2.22-1.39,5.13-4.01,5.77-1.21.3-2.57,0-3.4-.94-.51-.58-1.07-1.37-1.96-1.26-.72.09-1.1.69-1.33,1.31-.61,1.6-.72,3.27-.97,4.95-.44,3.04-.33,8.68-4.58,9.17-1.11.12-2.42-.12-3.25-.9-.88-.83-1.23-1.94-1.52-3.07-.15-.57-.54-2.13-1.47-1.81-.45.15-.7.67-.86,1.06-.38.93-.68,1.88-1,2.83-.33.98-.66,1.95-1.1,2.89-.41.9-1.05,1.94-1.97,2.42-.94.5-2.11.63-3.13.32-1.2-.37-1.91-1.09-2.53-2.13-.36,1.6-.51,3.22-.88,4.82-.29,1.21-.57,2.54-1.6,3.39-1.08.88-2.7.96-3.87.21-1.32-.86-1.27-2.55-1.35-3.94-.01-.2-.02-.4-.04-.61-.09-1.42-.22-2.85-.69-4.2-.37-1.06-.82-2.09-.93-3.22-.08-.88.03-1.78-.02-2.67-.03-.49-.13-2.36-1.09-1.84-.74.4-1.01,1.64-1.38,2.32-.53.97-1.24,1.84-2.4,2.05-1.07.2-2.26.02-3.05-.75-1.13-1.12-1.07-2.93-1.21-4.38-.15-1.57-.14-3.34-.58-4.91-.06-.22-.13-.44-.22-.65-.07-.19-.24-.41-.44-.34-.07.02-.12.07-.16.12-.69.7-1.22,1.36-2.14,1.84-1.7.88-3.69-.17-4.07-1.99-.32-1.48-.11-3.04-.16-4.54-.05-1.56-.3-3.49-.6-5.03v-.05s1.68,0,1.68,0h57.77Z"/><path class="cls-2" d="m3.06-.43c.33,1.68.79,4.16.83,5.87.02,1.02-.17,2.48.61,3.29.45.48,1.31.53,1.85.22.86-.5,1.02-1.4,1.56-2.13.09-.12.19-.24.32-.33.39-.27.74.1.97.41.64.91,1.07,1.91,1.38,2.96.17.56.3,1.14.41,1.72.28,1.5.25,3.03.6,4.53.27,1.18,1.23,1.91,2.48,1.52.83-.26,1.32-1.26,1.62-1.98.4-.91,1.28-3.81,2.67-2.47.73.71,1.36,1.63,1.75,2.55.35.81.44,1.72.46,2.6.03,1.06.03,2.22.33,3.24.31,1.05.71,2.08.96,3.15.07.28.12.56.16.85.1.71.13,1.44.17,2.17,0,.13.02.27.02.4.04.61.18,1.41.74,1.78.54.35,1.35.18,1.81-.21.51-.44.69-1.16.83-1.78.19-.86.33-1.73.51-2.59.11-.52.23-1.04.38-1.55.05-.19.12-.39.18-.58.13-.37.99-2.72,1.6-2.41.1.06.18.16.24.26.39.64.68,1.25,1.27,1.76,1.38,1.22,3.35.99,4.4-.51.51-.74.85-1.56,1.12-2.4.16-.5.29-1.02.43-1.53.24-.92.49-1.86,1.06-2.64.57-.76,1.61-1.19,2.59-1.15.59.02,1.16.23,1.6.63.72.67,1.18,1.66,1.49,2.55.24.68.46,1.44,1.19,1.7,1.05.39,1.97.05,2.58-.87.74-1.12.82-2.46.97-3.76.16-1.42.49-2.87.8-4.28.24-1.09.51-2.28,1.02-3.31.17-.34.37-.67.61-.97.81-1.04,2.02-1.89,3.43-1.58.93.2,1.36.97,1.89,1.65.8,1,2.27.88,3.06-.05.72-.85,1.06-2.07,1.39-3.11.37-1.14.88-2.55,1.42-3.62"/><path class="cls-2" d="m4.8-.43c.47,1.41.71,3.62.75,5.09.02.69.22,1.73,1.2,1.2.24-.13.41-.34.57-.56.41-.59.74-1.23,1.3-1.71.03-.02.05-.05.09-.05.04,0,.08.04.1.07,1.08,1.28,1.95,2.7,2.73,4.17.65,1.24,1.02,2.6,1.24,3.97.09.55.07,1.12.24,1.66.18.58.74,1.14,1.37.64.81-.65.86-1.94,1.47-2.76.26-.34.6-.63.86-.98.29-.4.75-1.3,1.38-.78.56.46.66,1.59.99,2.22s.94,1.22,1.66,1.16c.07,0,.15-.01.21.02.09.04.12.13.15.21.46,1.29.88,2.61,1.08,3.96.03.2.05.39.07.58.09.9.19,1.78.35,2.67.15.86.45,1.7.68,2.54.15.58.11,1.16.15,1.74,0,.17,0,.49.05.78.05.29.15.55.37.62.44.14.69-.37.84-.99.15-.61.2-1.31.23-1.53.15-.9.41-1.85.84-2.67.43-.84.86-1.62,1.11-2.54.03-.11.07-.24.13-.36.16-.37.45-.71.9-.41.83.55,1.18,1.6,1.82,2.31.75.83,2.11,1.16,2.79.11.66-1,.96-2.19,1.51-3.26.58-1.13,1.34-2.08,2-3.15.34-.55.85-1.27,1.6-.97.6.24,1.17.56,1.79.56.21,0,.42-.04.65-.12.44-.17.88-.5,1.33-.37.89.27,1.4,1.12,1.75,1.9.24.53.58,2.34,1.53,1.73.66-.42.69-1.6.75-2.28.21-2.04.19-4.1,1.13-5.99.18-.36.38-.71.57-1.06.1-.18.19-.36.29-.54.66-1.27,1.18-2.59,1.7-3.93.17-.45.37-.62.74-.3.35.29.76.52,1.22.57.58.06.98-.24,1.47-.52.94-.52,1.93-.15,2.34.82.21.49.55,1.17,1.16,1.25.8.12,1.19-.74,1.43-1.32.39-.96.78-2.45,1.1-3.43"/><path class="cls-2" d="m6.52-.43c.09.72.03,2.67,1.04,2.75.85.07,1.3-.9,1.78-1.4.04-.04.09-.08.14-.07.04,0,.08.04.1.08.15.18.26.4.38.61.4.73.79,1.45,1.24,2.15.54.82,1.19,1.58,1.66,2.43.38.69.65,1.43.9,2.17.27.81.86,1.66,1.81.95.47-.36.8-.93,1.11-1.43.34-.56,1.07-1.84,1.86-1.24.75.56,1.21,1.59,1.5,2.43.26.73.38,1.67,1.21,2.02.4.17.85.17,1.28.07.04,0,.14.34.26.81.27,1.05.65,2.76.7,2.98.14.66.24,1.33.34,2,.06.43.19,1.43.73,1.56.39.1.68-.21.91-.64.32-.63.5-1.53.59-1.85.16-.58.33-1.22.79-1.66.54-.52,1.21-.03,1.5.48.55.97,1.29,3.1,2.86,2.11.57-.36.87-.99,1.17-1.56.34-.65.75-1.26,1.22-1.82.48-.59,1.02-1.13,1.39-1.79.25-.45.54-1.28,1.02-1.67.21-.16.45-.24.74-.19.63.13.93.8,1.39,1.16.57.45,1.47.46,2.08.08.45-.29.78-.72,1.08-1.16.05-.08.12-.15.2-.16.08,0,.15.04.2.09.43.37.54,1.02.85,1.47.49.74,1.11.41,1.4-.32.27-.68.42-1.4.53-2.13.1-.67.11-1.42.35-2.05.22-.6.69-1.07,1.07-1.57.39-.5.65-1.1.89-1.69.51-1.24,1-2.84,1.65-4.03"/><path class="cls-2" d="m11.22-.43c.22.9,1.09,2.2,1.6,2.95.13.19.26.38.4.58.38.57.74,1.16,1.02,1.79.18.42.53.86,1.04.9.84.08,1.52-1.1,1.88-1.69.29-.49,1-1.75,1.6-.83.3.46.46.99.77,1.45.33.49.72.94,1.07,1.42.09.12.16.24.23.37.21.39.33.81.47,1.22.1.29.18.69.35,1,.11.18.25.32.45.38.52.15.92-.22,1.33-.46.02-.02.06-.04.09-.04.06,0,.1.06.12.11.36.66.43,1.57.61,2.29.06.24.12.53.23.81.1.27.25.52.46.67.41.3.98.19,1.35-.13.42-.36.65-.88,1.02-1.28.44-.48.79,0,1.03.43.36.66.6,1.54,1.37,1.88.74.33,1.69,0,2.13-.62.45-.63.66-1.42,1.19-2,.46-.49.96-.91,1.41-1.37.27-.28.53-.58.75-.92.35-.55.75-1.46,1.58-1.31.66.12.92.8,1.3,1.25.4.45,1.12.64,1.67.36.33-.17.58-.47.77-.79s.3-.67.45-1.01c.27.64,1,.83,1.53.36.69-.6.7-1.84.88-2.66.02-.12.05-.24.1-.36.17-.4.58-.64.91-.93.97-.87,1.35-2.57,1.58-3.82"/><path class="cls-2" d="m18.24-.43c.46.37.68.93.99,1.41.35.53.77,1.02,1.24,1.45.46.42.93.86,1.29,1.37.4.57.39,1.35.68,1.98.03.07.07.14.11.21.13.21.29.39.54.47.54.18,1-.21,1.44-.48.03-.01.06-.03.09-.02.04,0,.05.04.07.07.36.62.61,1.3.8,1.99.12.4.19.94.52,1.25.47.45,1.12-.13,1.44-.5.17-.2.54-.87.86-.81.05,0,.1.05.15.09.47.47.55,1.14.94,1.65.37.48.95.67,1.49.3.44-.3.56-.75.82-1.18.28-.47.72-.84,1.15-1.17.86-.67,1.63-1.37,2.09-2.36.4-.86,1.43-2.35,2.37-1.04.4.55.67,1.97,1.72,1.44.4-.21.56-.68.72-1.1,0-.02.02-.05.04-.06.03-.01.07,0,.09.03.38.3.85.83,1.32.29.43-.49.22-1.35.52-1.92.19-.36.55-.62.84-.91.53-.53,1.01-1.72,1.15-2.44"/><path class="cls-2" d="m13.23-.43c.23.31.75,1.14.9,1.5.18.43.27.97.61,1.31.04.04.09.08.13.1.37.24.93.12,1.25-.16.49-.43.74-1.19,1.07-1.73.22-.36.46-.75.79-1.02"/><path class="cls-2" d="m20.82-.43c.54.71,1.47,1.95,2.01,2.67.18.25.37.5.51.78.19.41.3,1.12.77,1.34.26.11.56,0,.8-.15.24-.15.46-.33.65-.55.02-.02.04-.05.07-.05.05-.01.09.05.1.1.23.6.33,1.3.72,1.84.19.27.45.46.79.49.66.05,1.23-.86,1.84-.67.49.15.61.81.9,1.16.44.53,1.14.38,1.58-.05.47-.45.61-1.12.97-1.64.33-.49.82-.83,1.24-1.25.33-.34.61-.72.82-1.14.23-.45.46-1.06.93-1.31.65-.34,1.19.3,1.54.75.65.87,1.67.95,2.55.37.28-.18.49-.44.69-.71.33-.46.8-1.46,1.02-1.98"/><path class="cls-2" d="m23.48-.43c.27.37.58,1.13.68,1.43.27.84,1.07,1.49,1.88.72.21-.21.49-.69.86-.54.29.12.41.44.5.71.15.45.1,1.06.52,1.38.33.26.82.2,1.21.05.04-.02.07-.03.11-.04.02,0,.04-.01.05,0,.01,0,.02.02.03.03.54.77,1.18,1.48,2.11.67.62-.54.54-1.26.9-1.92.42-.75,1.53-1.66,1.82-2.48"/><path class="cls-2" d="m28.51-.43c.19.67.52,1.97,1.25,2.26,1.1.45,2.09-1.43,2.37-2.26"/><path class="cls-2" d="m37.34-.43c.15.67.77.86,1.1.86.41,0,1.01-.43,1.1-.86"/><path class="cls-2" d="m50.29-.43c.15.51.79,1.31,1.35,1.32.61.01,1.14-.83,1.39-1.32"/><path class="cls-2" d="m54.46-.43c.13.4.6,1.73,1.16,1.72.52,0,.89-1.35,1.01-1.72"/></g></svg>