<?xml version="1.0" encoding="utf-8"?>
<!-- Generator: Adobe Illustrator 27.3.1, SVG Export Plug-In . SVG Version: 6.00 Build 0)  -->
<svg version="1.1" id="Layer_1" xmlns="http://www.w3.org/2000/svg" xmlns:xlink="http://www.w3.org/1999/xlink" x="0px" y="0px"
	 viewBox="0 0 64 64" style="enable-background:new 0 0 64 64;" xml:space="preserve">
<style type="text/css">
	.st0{clip-path:url(#SVGID_00000054225651268445347560000008094914885294007217_);}
	.st1{fill:#010101;}
	.st2{fill:#FFFFFF;}
	.st3{fill:none;stroke:#010101;stroke-width:8.000000e-02;stroke-miterlimit:10;}
</style>
<g>
	<defs>
		<rect id="SVGID_1_" width="62.1" height="41.6"/>
	</defs>
	<clipPath id="SVGID_00000093174248396190717590000011334623202332802995_">
		<use xlink:href="#SVGID_1_"  style="overflow:visible;"/>
	</clipPath>
	<g id="XMLID_3_" style="clip-path:url(#SVGID_00000093174248396190717590000011334623202332802995_);">
		<g>
			<path class="st1" d="M56.8-0.1c-0.2,0.4-0.6,1.8-0.9,2.1c-1,0.8-1.7-1.4-1.9-2.1H56.8z"/>
			<path class="st2" d="M58.7-0.1c-0.3,1.1-0.8,2.9-1.1,4c-0.3,1.2-1.4,3.3-3,2.3c-0.6-0.4-0.7-1.4-0.9-2.1
				c-0.5-1.6-1.6-3.7-3.2-3.7v-0.5H54c0.1,0.7,0.9,2.9,1.9,2.1c0.4-0.3,0.8-1.7,0.9-2.1H58.7z"/>
			<path class="st2" d="M37.7,2.3c1.1,0.4,1.4-1.6,1.5-2.3h3.2c-0.7,1.5-1.2,3.8-1.7,5.4c-0.1,0.3-0.2,0.6-0.5,0.9
				c-0.4,0.3-0.8,0.4-1.2,0.2c-0.3-0.1-0.4-0.4-0.6-0.6c-0.5,0.4-1,0.7-1.6,0.3c-0.4-0.3-0.6-0.8-0.7-1.2c-0.1-0.1-0.6-2-0.9-2
				l1.9-1C37.3,2,37.5,2.2,37.7,2.3z"/>
			<path class="st1" d="M36.5-0.1h2.7c-0.1,0.7-0.4,2.7-1.5,2.3c-0.2-0.1-0.4-0.3-0.6-0.5C36.8,1.2,36.6,0.3,36.5-0.1z"/>
			<path class="st1" d="M37.8,13.2c0.5,0,0.8,0.5,1,0.9c0.5,1.2,0.8,2.4,1,3.7c0.2,0.9,0.3,1.8,0.7,2.6c0.5,1.1,1.9,1.2,2.8,0.5
				c1.2-0.9,1.3-2.4,1.4-3.8c0.1-1.7,0.3-3.3,0.5-5c0.2-1.7,0.5-3.4,0.9-5.1c0.5-2,1.1-4.5,2.7-5.9c0.6-0.5,1.1-0.7,1.6-0.7
				c1.6,0,2.7,2.1,3.2,3.7c0.2,0.7,0.3,1.7,0.9,2.1c1.5,1,2.6-1.2,3-2.3c0.3-1.1,0.8-2.9,1.1-4h2.4l-0.2,0.9c-0.6,2.5-0.9,6-2.7,8
				c-1.2,1.3-3.4,1.6-4.8,0.5c-1-0.7-1.1-2.2-1.4-3.3c-0.6-1.7-2.1-1.5-2.7,0.1c-0.3,1-0.3,2-0.4,3c-0.3,3.2-0.7,6.4-1.4,9.6
				c-0.5,2.3-1,4.9-3.2,6.1c-1.9,1-4.6,0.5-6-1.2c-1.3-1.6-1.5-4.1-2.1-6c-0.2-0.5-0.3-1-0.6-1.5c-0.4-0.7-0.9-1-1.3-1l0.9-2.1
				c0.6,0.3,1.3,0.4,1.9,0.2C37.4,13.3,37.6,13.2,37.8,13.2z"/>
			<path class="st2" d="M36.5-0.1c0.1,0.4,0.3,1.3,0.6,1.8l-1.9,1c0,0,0,0,0,0c-1,0.4-1.8,1-2.7,0.1c-0.4-0.4-0.6-1.4-1.1-1.5
				c0,0-0.1,0-0.1,0v-1.5H36.5z"/>
			<path class="st1" d="M18.9,17.7c0.9,0.4,1.4-0.6,2-1.2c0.7,1.1,2.1,1.6,2.6,0.1c0.8-2.2,1.3-4.5,2.6-6.6c1.1-1.9,2.6-3.6,3.3-5.7
				c0.2-0.7,0.4-1.4,0.8-2c0.2-0.4,0.7-1,1.1-1c0,0,0.1,0,0.1,0c0.5,0.1,0.7,1.1,1.1,1.5c0.9,0.9,1.7,0.3,2.7-0.1c0,0,0,0,0,0
				c0.4,0,0.9,1.9,0.9,2c0.2,0.5,0.3,0.9,0.7,1.2c0.6,0.4,1.1,0.1,1.6-0.3c0.1,0.2,0.3,0.5,0.6,0.6c0.4,0.2,0.8,0.1,1.2-0.2
				c0.2-0.2,0.4-0.5,0.5-0.9c0.5-1.6,1-3.9,1.7-5.4h3.1c-2,3.5-2.5,8.4-2.6,12.4c0,0.7,0.1,1.7-0.2,2.3c-0.3,0.5-0.8,0.7-1.2,0.1
				c-0.4-0.7-0.5-1.6-0.7-2.4C40.4,11.2,40,9.9,39.2,9c0,0-0.1-0.1-0.1-0.1c-0.1,0-0.2,0-0.2,0.1c-0.5,0.4-1,0.8-1.6,1
				c-1.6,0.5-2.3-0.8-2.9-2c-0.4-0.8-1.2-2-2.3-1.6c-1.2,0.4-1.4,2.2-1.9,3.2c-0.8,1.6-2,2.9-3,4.4c-1,1.6-1.4,3.3-1.7,5.2
				c-0.1,1.2-0.2,2.5-0.3,3.7c-0.1,0.7-0.2,4.4-1.6,3.7c-0.5-0.2-0.6-1.6-0.7-2c-0.1-0.6-0.9-4.4-2-4c-0.1,0-0.1,0.1-0.2,0.2
				c-0.4,0.5-0.6,1-1,1.5c-0.4,0.5-0.9,0.9-1.5,1c-1.4,0.1-1.4-1.2-1.5-2.2c-0.2-1.4-0.6-2.8-1-4.2l2.1-0.6
				C17.9,16.8,18.3,17.5,18.9,17.7z"/>
			<path class="st1" d="M22.4-0.1c-0.2,0.6-0.5,3-1.5,2.2c-0.1-0.1-0.2-0.2-0.3-0.4c-0.3-0.5-0.5-1.3-0.6-1.8H22.4z"/>
			<path class="st2" d="M18.8,2.5l1.8-0.8c0.1,0.2,0.2,0.3,0.3,0.4c1,0.8,1.3-1.6,1.5-2.2h1.9c-0.2,0.8-0.6,2-0.8,2.8
				c-0.2,0.7-0.4,1.6-0.9,2.2c-0.4,0.5-1.3,1-1.9,0.7c-0.6-0.3-0.9-1.2-1.1-1.7C19.4,3.8,18.9,2.5,18.8,2.5z"/>
			<path class="st2" d="M14.9-0.1h5c0.1,0.4,0.3,1.2,0.6,1.8l-1.8,0.8c-0.4,0.3-0.9,0.7-1.5,0.7C15.8,3.4,15.3,0.9,14.9-0.1z"/>
			<path class="st1" d="M15.8,6.8c-1.1,0.6-1.7-0.3-1.9-1.2c-0.4-1.8-1.8-4.2-2.9-5.6h4c0.4,1,0.9,3.5,2.4,3.3
				c0.6-0.1,1-0.4,1.5-0.7c0.1,0,0.6,1.3,0.7,1.4c0.2,0.6,0.5,1.4,1.1,1.7c0.7,0.3,1.5-0.2,1.9-0.7c0.5-0.6,0.7-1.5,0.9-2.2
				c0.2-0.8,0.6-2,0.8-2.8H27c-0.4,1.6-0.9,3.6-1.8,5c-0.8,1.4-1.9,2.5-2.4,4.1c-0.4,1.1-0.5,4.3-2.4,3.8c-1.4-0.4-1.2-2.5-1.6-3.6
				C18.5,8,18,6.9,17.2,5.9c-0.1-0.1-0.1-0.1-0.2-0.1c-0.1,0-0.1,0-0.2,0.1C16.5,6.2,16.2,6.6,15.8,6.8z"/>
			<path class="st1" d="M14.1,21.6c0.2,1.4,0.2,3,1.1,4.2c1.2,1.8,3.1,0.5,4.3-0.5c0.1-0.1,0.2-0.1,0.3-0.2c0.1,0,0.3,0.1,0.4,0.2
				c0.7,0.7,1.1,2,1.5,2.9c0.4,1.2,0.7,2.5,0.9,3.7c0.2,0.8,0.2,1.8,0.7,2.5c1.1,1.4,2.7,0,3.2-1.2c0.7-1.8,0.7-3.8,0.9-5.7
				c0.2-2.6,0.5-5.2,1.1-7.7c0.3-1.3,0.6-2.5,1.1-3.8c0.5-1.3,1.3-2.4,2-3.6c0.2-0.5,0.5-1.2,1.1-1.3c0.9-0.2,1.7,1.2,2.3,1.7
				c0.1,0.1,0.2,0.1,0.4,0.2l-0.9,2.1c-1,0-1.8,1.8-2.1,2.9c-0.7,2.5-0.8,5.1-1.3,7.7c-0.3,1.5-0.7,2.9-1,4.3
				c-0.6,2.7-0.8,6.8-3.3,8.5c-1.5,1-3.5,1-4.9-0.2c-1.2-1-1.7-2.6-2-4c-0.3-1.6-0.3-3.4-1.2-4.8c-0.1-0.1-0.1-0.2-0.2-0.2
				c-0.2-0.1-0.4-0.1-0.6-0.1c-1.8,0.2-4.1,0.2-5.2-1.6c-0.6-1.2-0.8-2.5-1-3.8c-0.3-1.4-0.4-2.9-0.6-4.3c-0.1-0.7-0.3-1.5-1.1-1.7
				c-0.7-0.1-1.2,0.6-1.5,1c-1.2,1.7-1.9,3.6-3.6,4.8c-1.3,0.9-3.1,1.5-4.8-0.1l-0.1-0.1v-4.3c0.8,0.9,1.6,1.8,2.9,1.6
				c1.4-0.2,2.3-1.7,2.9-2.9c0.8-1.4,1.4-2.7,2.7-3.7c0.1-0.1,0.3-0.2,0.4-0.2c0.2,0,0.4,0.1,0.5,0.2c1,0.7,2.1,1.5,2.8,2.4
				C13.4,18.2,13.9,19.9,14.1,21.6z"/>
			<path class="st2" d="M4,1.2C3.8,1.4,3.6,1.6,3.3,1.5C3.1,1.5,3,1.4,2.9,1.2C2.6,0.9,2.6,0.3,2.5-0.1h2.3C4.5,0.3,4.3,0.8,4,1.2z"
				/>
			<path class="st1" d="M7.4-0.1c-0.3,0.3-0.8,1-1.2,1.6c-0.3,0.7-0.6,1.3-1,2C4.5,4.6,3,5.7,1.9,4.3C1.2,3.4,1.1,2.2,0.6,1.2
				C0.4,0.8,0.1,0.1,0-0.1h2.5c0.1,0.4,0.1,0.9,0.4,1.3C3,1.4,3.1,1.5,3.3,1.5c0.2,0,0.5-0.1,0.7-0.3c0.3-0.4,0.5-0.9,0.8-1.3H7.4z"
				/>
			<path class="st1" d="M14,9.8c0.7,0,1.3-0.2,1.9-0.5c0.1,0,0.1-0.1,0.2,0c0,0,0.1,0.1,0.1,0.1c1.3,2,1.1,4.3,1.6,6.5
				c0,0.1,0,0.2,0.1,0.3l-2.1,0.6c-0.5-1.4-1-2.7-1.5-4.1c-0.9,0.9-2.4,0.7-3.1-0.4c-0.5-0.8-0.6-1.7-1-2.6C9.9,9.1,9.2,8.6,8.6,8.8
				c-1,0.4-1.2,1.8-1.7,2.6C6.4,12,5.9,12.5,5.5,13c-0.8,1-0.9,2.2-1.7,3.2c-0.5,0.7-1.5,1.1-2.3,0.5c-0.7-0.5-1.3-2.9-1.7-3.6V5.4
				c0.5,1,1.4,3.2,1.7,4.3c0.1,0.4,0.3,0.9,0.7,1.1C2.7,11,3.3,11,3.7,10.7c1-0.7,1.2-2,1.8-3.1c0.7-1.1,1.7-2.2,2.3-3.4
				c0.5-0.9,1.3-1.9,2.1-0.6c0.4,0.6,0.6,1.3,1,1.9c0.4,0.6,0.9,1.2,1.2,1.9C12.5,8.4,12.6,9.7,14,9.8z"/>
			<path class="st2" d="M15.2,25.8c-0.8-1.2-0.9-2.8-1.1-4.2c-0.2-1.8-0.8-3.5-1.9-4.9c-0.7-0.9-1.9-1.7-2.8-2.4
				c-0.2-0.1-0.3-0.2-0.5-0.2c-0.2,0-0.3,0.1-0.4,0.2c-1.3,1-1.9,2.3-2.7,3.7c-0.7,1.2-1.5,2.6-2.9,2.9c-1.3,0.2-2.1-0.8-2.9-1.6
				v-6.2c0.4,0.7,1,3.1,1.7,3.6c0.7,0.6,1.7,0.2,2.3-0.5c0.7-1,0.9-2.2,1.7-3.2c0.4-0.5,1-1,1.3-1.6c0.5-0.8,0.7-2.2,1.7-2.6
				c0.7-0.2,1.3,0.3,1.6,0.9c0.4,0.8,0.5,1.8,1,2.6c0.7,1.1,2.1,1.3,3.1,0.4c0.5,1.4,1,2.7,1.5,4.1c0.5,1.4,0.9,2.8,1,4.2
				c0.1,1,0.1,2.3,1.5,2.2c0.6,0,1.1-0.5,1.5-1c0.4-0.5,0.6-1.1,1-1.5c0.1-0.1,0.1-0.1,0.2-0.2c1.1-0.4,1.8,3.4,2,4
				c0.1,0.5,0.2,1.8,0.7,2c1.4,0.7,1.6-3,1.6-3.7c0.1-1.2,0.2-2.5,0.3-3.7c0.2-1.8,0.7-3.6,1.7-5.2c0.9-1.5,2.1-2.8,3-4.4
				c0.5-1,0.7-2.8,1.9-3.2C33.1,6,33.8,7.2,34.3,8c0.6,1.2,1.4,2.5,2.9,2c0.6-0.2,1.1-0.6,1.6-1c0.1-0.1,0.2-0.1,0.2-0.1
				c0,0,0.1,0.1,0.1,0.1c0.8,0.9,1.2,2.2,1.6,3.4c0.2,0.8,0.3,1.7,0.7,2.4c0.3,0.5,0.9,0.4,1.2-0.1c0.3-0.6,0.2-1.6,0.2-2.3
				c0.2-4,0.7-8.9,2.6-12.4h5v0.5c-0.5,0-1,0.2-1.6,0.7C47.2,2.5,46.7,5,46.2,7c-0.4,1.7-0.7,3.4-0.9,5.1c-0.2,1.7-0.4,3.3-0.5,5
				c-0.1,1.3-0.2,2.9-1.4,3.8c-0.9,0.7-2.3,0.6-2.8-0.5c-0.4-0.8-0.5-1.7-0.7-2.6c-0.2-1.3-0.5-2.5-1-3.7c-0.2-0.4-0.5-0.9-1-0.9
				c-0.2,0-0.4,0.1-0.6,0.2c-0.5,0.2-1.3,0.1-1.9-0.2c-0.1-0.1-0.2-0.1-0.4-0.2c-0.6-0.5-1.4-1.9-2.3-1.7c-0.6,0.1-0.9,0.8-1.1,1.3
				c-0.6,1.2-1.4,2.3-2,3.6c-0.5,1.2-0.8,2.5-1.1,3.8c-0.6,2.5-0.9,5.1-1.1,7.7c-0.2,1.9-0.3,3.9-0.9,5.7c-0.4,1.2-2.1,2.6-3.2,1.2
				c-0.5-0.7-0.6-1.7-0.7-2.5c-0.2-1.3-0.5-2.5-0.9-3.7c-0.4-0.9-0.7-2.2-1.5-2.9c-0.1-0.1-0.2-0.2-0.4-0.2c-0.1,0-0.2,0.1-0.3,0.2
				C18.2,26.2,16.4,27.6,15.2,25.8z"/>
			<path class="st2" d="M13.9,5.5c0.2,0.9,0.8,1.8,1.9,1.2c0.4-0.2,0.7-0.6,1-0.9c0.1,0,0.1-0.1,0.2-0.1c0.1,0,0.1,0.1,0.2,0.1
				C18,6.9,18.5,8,18.9,9.2c0.4,1.1,0.1,3.2,1.6,3.6c1.9,0.5,2-2.7,2.4-3.8c0.5-1.5,1.6-2.7,2.4-4.1c0.8-1.4,1.4-3.4,1.8-5h4.3v1.5
				c-0.5,0-0.9,0.6-1.1,1c-0.4,0.6-0.5,1.3-0.8,2c-0.7,2.1-2.2,3.8-3.3,5.7c-1.2,2-1.8,4.4-2.6,6.6c-0.5,1.4-1.9,0.9-2.6-0.1
				c-0.5,0.5-1.1,1.5-2,1.2c-0.6-0.2-0.9-0.9-1.1-1.5c0-0.1,0-0.2-0.1-0.3c-0.4-2.2-0.2-4.6-1.6-6.5c0,0-0.1-0.1-0.1-0.1
				c-0.1,0-0.1,0-0.2,0c-0.6,0.3-1.2,0.5-1.9,0.5c-1.4-0.1-1.5-1.4-1.9-2.4c-0.3-0.7-0.8-1.3-1.2-1.9c-0.4-0.6-0.6-1.3-1-1.9
				C9.1,2.4,8.2,3.3,7.8,4.3C7.2,5.4,6.2,6.5,5.5,7.6c-0.6,1-0.8,2.3-1.8,3.1c-0.4,0.3-1,0.3-1.4,0.1C1.9,10.5,1.8,10,1.6,9.6
				C1.3,8.5,0.4,6.4-0.1,5.4v-5.5H0c0.1,0.2,0.4,0.9,0.6,1.3c0.5,1,0.6,2.2,1.3,3.1C3,5.7,4.5,4.6,5.2,3.5c0.4-0.6,0.7-1.3,1-2
				c0.3-0.6,0.9-1.3,1.2-1.6H11C12.1,1.3,13.5,3.7,13.9,5.5z"/>
		</g>
		<g>
			<path class="st3" d="M58.7-0.1h2.4l-0.2,0.9c-0.6,2.5-0.9,6-2.7,8c-1.2,1.3-3.4,1.6-4.8,0.5c-1-0.7-1.1-2.2-1.4-3.3
				c-0.6-1.7-2.1-1.5-2.7,0.1c-0.3,1-0.3,2-0.4,3c-0.3,3.2-0.7,6.4-1.4,9.6c-0.5,2.3-1,4.9-3.2,6.1c-1.9,1-4.6,0.5-6-1.2
				c-1.3-1.6-1.5-4.1-2.1-6c-0.2-0.5-0.3-1-0.6-1.5c-0.4-0.7-0.9-1-1.3-1c-1,0-1.8,1.8-2.1,2.9c-0.7,2.5-0.8,5.1-1.3,7.7
				c-0.3,1.5-0.7,2.9-1,4.3c-0.6,2.7-0.8,6.8-3.3,8.5c-1.5,1-3.5,1-4.9-0.2c-1.2-1-1.7-2.6-2-4c-0.3-1.6-0.3-3.4-1.2-4.8
				c-0.1-0.1-0.1-0.2-0.2-0.2c-0.2-0.1-0.4-0.1-0.6-0.1c-1.8,0.2-4.1,0.2-5.2-1.6c-0.6-1.2-0.8-2.5-1-3.8c-0.3-1.4-0.4-2.9-0.6-4.3
				c-0.1-0.7-0.3-1.5-1.1-1.7c-0.7-0.1-1.2,0.6-1.5,1c-1.2,1.7-1.9,3.6-3.6,4.8c-1.3,0.9-3.1,1.5-4.8-0.1l-0.1-0.1v-4.3v-6.2V5.4
				v-5.5H0h2.5h2.3h2.6H11h4h5h2.4h1.9H27h4.3h5.3h2.7h3.2h3.1h5H54h2.8H58.7z"/>
			<path class="st3" d="M-0.1,19.3c0.8,0.9,1.6,1.8,2.9,1.6c1.4-0.2,2.3-1.7,2.9-2.9c0.8-1.4,1.4-2.7,2.7-3.7
				c0.1-0.1,0.3-0.2,0.4-0.2c0.2,0,0.4,0.1,0.5,0.2c1,0.7,2.1,1.5,2.8,2.4c1.1,1.4,1.6,3.1,1.9,4.9c0.2,1.4,0.2,3,1.1,4.2
				c1.2,1.8,3.1,0.5,4.3-0.5c0.1-0.1,0.2-0.1,0.3-0.2c0.1,0,0.3,0.1,0.4,0.2c0.7,0.7,1.1,2,1.5,2.9c0.4,1.2,0.7,2.5,0.9,3.7
				c0.2,0.8,0.2,1.8,0.7,2.5c1.1,1.4,2.7,0,3.2-1.2c0.7-1.8,0.7-3.8,0.9-5.7c0.2-2.6,0.5-5.2,1.1-7.7c0.3-1.3,0.6-2.5,1.1-3.8
				c0.5-1.3,1.3-2.4,2-3.6c0.2-0.5,0.5-1.2,1.1-1.3c0.9-0.2,1.7,1.2,2.3,1.7c0.1,0.1,0.2,0.1,0.4,0.2c0.6,0.3,1.3,0.4,1.9,0.2
				c0.2-0.1,0.4-0.2,0.6-0.2c0.5,0,0.8,0.5,1,0.9c0.5,1.2,0.8,2.4,1,3.7c0.2,0.9,0.3,1.8,0.7,2.6c0.5,1.1,1.9,1.2,2.8,0.5
				c1.2-0.9,1.3-2.4,1.4-3.8c0.1-1.7,0.3-3.3,0.5-5c0.2-1.7,0.5-3.4,0.9-5.1c0.5-2,1.1-4.5,2.7-5.9c0.6-0.5,1.1-0.7,1.6-0.7
				c1.6,0,2.7,2.1,3.2,3.7c0.2,0.7,0.3,1.7,0.9,2.1c1.5,1,2.6-1.2,3-2.3c0.3-1.1,0.8-2.9,1.1-4"/>
			<path class="st3" d="M54-0.1c0.1,0.7,0.9,2.9,1.9,2.1c0.4-0.3,0.8-1.7,0.9-2.1"/>
			<path class="st3" d="M-0.1,13.1c0.4,0.7,1,3.1,1.7,3.6c0.7,0.6,1.7,0.2,2.3-0.5c0.7-1,0.9-2.2,1.7-3.2c0.4-0.5,1-1,1.3-1.6
				c0.5-0.8,0.7-2.2,1.7-2.6c0.7-0.2,1.3,0.3,1.6,0.9c0.4,0.8,0.5,1.8,1,2.6c0.7,1.1,2.1,1.3,3.1,0.4c0.5,1.4,1,2.7,1.5,4.1
				c0.5,1.4,0.9,2.8,1,4.2c0.1,1,0.1,2.3,1.5,2.2c0.6,0,1.1-0.5,1.5-1c0.4-0.5,0.6-1.1,1-1.5c0.1-0.1,0.1-0.1,0.2-0.2
				c1.1-0.4,1.8,3.4,2,4c0.1,0.5,0.2,1.8,0.7,2c1.4,0.7,1.6-3,1.6-3.7c0.1-1.2,0.2-2.5,0.3-3.7c0.2-1.8,0.7-3.6,1.7-5.2
				c0.9-1.5,2.1-2.8,3-4.4c0.5-1,0.7-2.8,1.9-3.2C33.1,6,33.8,7.2,34.3,8c0.6,1.2,1.4,2.5,2.9,2c0.6-0.2,1.1-0.6,1.6-1
				c0.1-0.1,0.2-0.1,0.2-0.1c0,0,0.1,0.1,0.1,0.1c0.8,0.9,1.2,2.2,1.6,3.4c0.2,0.8,0.3,1.7,0.7,2.4c0.3,0.5,0.9,0.4,1.2-0.1
				c0.3-0.6,0.2-1.6,0.2-2.3c0.2-4,0.7-8.9,2.6-12.4"/>
			<path class="st3" d="M-0.1,5.4c0.5,1,1.4,3.2,1.7,4.3c0.1,0.4,0.3,0.9,0.7,1.1C2.7,11,3.3,11,3.7,10.7c1-0.7,1.2-2,1.8-3.1
				c0.7-1.1,1.7-2.2,2.3-3.4c0.5-0.9,1.3-1.9,2.1-0.6c0.4,0.6,0.6,1.3,1,1.9c0.4,0.6,0.9,1.2,1.2,1.9c0.4,1,0.5,2.3,1.9,2.4
				c0.7,0,1.3-0.2,1.9-0.5c0.1,0,0.1-0.1,0.2,0c0,0,0.1,0.1,0.1,0.1c1.3,2,1.1,4.3,1.6,6.5c0,0.1,0,0.2,0.1,0.3
				c0.2,0.6,0.5,1.3,1.1,1.5c0.9,0.4,1.4-0.6,2-1.2c0.7,1.1,2.1,1.6,2.6,0.1c0.8-2.2,1.3-4.5,2.6-6.6c1.1-1.9,2.6-3.6,3.3-5.7
				c0.2-0.7,0.4-1.4,0.8-2c0.2-0.4,0.7-1,1.1-1c0,0,0.1,0,0.1,0c0.5,0.1,0.7,1.1,1.1,1.5c0.9,0.9,1.7,0.3,2.7-0.1c0,0,0,0,0,0
				c0.4,0,0.9,1.9,0.9,2c0.2,0.5,0.3,0.9,0.7,1.2c0.6,0.4,1.1,0.1,1.6-0.3c0.1,0.2,0.3,0.5,0.6,0.6c0.4,0.2,0.8,0.1,1.2-0.2
				c0.2-0.2,0.4-0.5,0.5-0.9c0.5-1.6,1-3.9,1.7-5.4"/>
			<path class="st3" d="M36.5-0.1c0.1,0.4,0.3,1.3,0.6,1.8c0.2,0.3,0.3,0.4,0.6,0.5c1.1,0.4,1.4-1.6,1.5-2.3"/>
			<path class="st3" d="M0-0.1c0.1,0.2,0.4,0.9,0.6,1.3c0.5,1,0.6,2.2,1.3,3.1C3,5.7,4.5,4.6,5.2,3.5c0.4-0.6,0.7-1.3,1-2
				c0.3-0.6,0.9-1.3,1.2-1.6"/>
			<path class="st3" d="M2.5-0.1c0.1,0.4,0.1,0.9,0.4,1.3C3,1.4,3.1,1.5,3.3,1.5c0.2,0,0.5-0.1,0.7-0.3c0.3-0.4,0.5-0.9,0.8-1.3"/>
			<path class="st3" d="M11-0.1c1.1,1.4,2.5,3.8,2.9,5.6c0.2,0.9,0.8,1.8,1.9,1.2c0.4-0.2,0.7-0.6,1-0.9c0.1,0,0.1-0.1,0.2-0.1
				c0.1,0,0.1,0.1,0.2,0.1C18,6.9,18.5,8,18.9,9.2c0.4,1.1,0.1,3.2,1.6,3.6c1.9,0.5,2-2.7,2.4-3.8c0.5-1.5,1.6-2.7,2.4-4.1
				c0.8-1.4,1.4-3.4,1.8-5"/>
			<path class="st3" d="M14.9-0.1c0.4,1,0.9,3.5,2.4,3.3c0.6-0.1,1-0.4,1.5-0.7c0.1,0,0.6,1.3,0.7,1.4c0.2,0.6,0.5,1.4,1.1,1.7
				c0.7,0.3,1.5-0.2,1.9-0.7c0.5-0.6,0.7-1.5,0.9-2.2c0.2-0.8,0.6-2,0.8-2.8"/>
			<path class="st3" d="M20-0.1c0.1,0.4,0.3,1.2,0.6,1.8c0.1,0.2,0.2,0.3,0.3,0.4c1,0.8,1.3-1.6,1.5-2.2"/>
		</g>
	</g>
</g>
</svg>
