<?xml version="1.0" encoding="utf-8"?>
<!-- Generator: Adobe Illustrator 27.3.1, SVG Export Plug-In . SVG Version: 6.00 Build 0)  -->
<svg version="1.1" id="Layer_1" xmlns="http://www.w3.org/2000/svg" xmlns:xlink="http://www.w3.org/1999/xlink" x="0px" y="0px"
	 viewBox="0 0 64 64" style="enable-background:new 0 0 64 64;" xml:space="preserve">
<style type="text/css">
	.st0{fill:#FFFFFF;}
</style>
<g>
	<path class="st0" d="M32,0c-8.7,0-9.8,0-13.2,0.2c-3.4,0.2-5.7,0.7-7.8,1.5C8.9,2.5,7.2,3.6,5.4,5.4C3.6,7.2,2.5,8.9,1.7,11
		c-0.8,2-1.3,4.4-1.5,7.8C0,22.2,0,23.3,0,32c0,8.7,0,9.8,0.2,13.2C0.4,48.6,0.9,51,1.7,53c0.8,2.1,1.9,3.9,3.7,5.7
		c1.8,1.8,3.6,2.9,5.7,3.7c2,0.8,4.4,1.3,7.8,1.5C22.2,64,23.3,64,32,64c8.7,0,9.8,0,13.2-0.2c3.4-0.2,5.7-0.7,7.8-1.5
		c2.1-0.8,3.9-1.9,5.7-3.7c1.8-1.8,2.9-3.6,3.7-5.7c0.8-2,1.3-4.4,1.5-7.8C64,41.8,64,40.7,64,32c0-8.7,0-9.8-0.2-13.2
		c-0.2-3.4-0.7-5.7-1.5-7.8c-0.8-2.1-1.9-3.9-3.7-5.7c-1.8-1.8-3.6-2.9-5.7-3.7c-2-0.8-4.4-1.3-7.8-1.5C41.8,0,40.7,0,32,0L32,0
		L32,0z M32,5.8c8.6,0,9.6,0,12.9,0.2c3.1,0.1,4.8,0.7,5.9,1.1c1.5,0.6,2.6,1.3,3.7,2.4c1.1,1.1,1.8,2.2,2.4,3.7
		c0.4,1.1,1,2.8,1.1,5.9c0.2,3.4,0.2,4.4,0.2,12.9c0,8.6,0,9.6-0.2,12.9c-0.1,3.1-0.7,4.8-1.1,5.9c-0.6,1.5-1.3,2.6-2.4,3.7
		c-1.1,1.1-2.2,1.8-3.7,2.4c-1.1,0.4-2.8,1-5.9,1.1c-3.4,0.2-4.4,0.2-12.9,0.2c-8.6,0-9.6,0-12.9-0.2c-3.1-0.1-4.8-0.7-5.9-1.1
		c-1.5-0.6-2.6-1.3-3.7-2.4c-1.1-1.1-1.8-2.2-2.4-3.7c-0.4-1.1-1-2.8-1.1-5.9C5.8,41.6,5.8,40.6,5.8,32c0-8.6,0-9.6,0.2-12.9
		c0.1-3.1,0.7-4.8,1.1-5.9c0.6-1.5,1.3-2.6,2.4-3.7c1.1-1.1,2.2-1.8,3.7-2.4c1.1-0.4,2.8-1,5.9-1.1C22.5,5.8,23.5,5.8,32,5.8"/>
	<path class="st0" d="M32,42.7c-5.9,0-10.7-4.8-10.7-10.7c0-5.9,4.8-10.7,10.7-10.7c5.9,0,10.7,4.8,10.7,10.7
		C42.7,37.9,37.9,42.7,32,42.7L32,42.7z M32,15.6c-9.1,0-16.4,7.4-16.4,16.4c0,9.1,7.4,16.4,16.4,16.4c9.1,0,16.4-7.4,16.4-16.4
		C48.5,22.9,41.1,15.6,32,15.6L32,15.6z"/>
	<path class="st0" d="M53,14.9c0,2.1-1.7,3.8-3.8,3.8c-2.1,0-3.8-1.7-3.8-3.8c0-2.1,1.7-3.8,3.8-3.8C51.2,11.1,53,12.8,53,14.9
		L53,14.9z"/>
</g>
</svg>
