<?xml version="1.0" encoding="utf-8"?>
<!-- Generator: Adobe Illustrator 27.3.1, SVG Export Plug-In . SVG Version: 6.00 Build 0)  -->
<svg version="1.1" id="Layer_1" xmlns="http://www.w3.org/2000/svg" xmlns:xlink="http://www.w3.org/1999/xlink" x="0px" y="0px"
	 viewBox="0 0 229.1 209.1" style="enable-background:new 0 0 229.1 209.1;" xml:space="preserve">
<style type="text/css">
	.st0{fill:#B84E7F;}
	.st1{fill:#DB5C56;}
	.st2{fill:#E48649;}
	.st3{fill:#E68D48;}
	.st4{fill:#EEC251;}
	.st5{fill:#C8D85E;}
	.st6{fill:#A2C85E;}
	.st7{fill:#85BD65;}
	.st8{fill:#68B58A;}
	.st9{fill:#60AAA3;}
	.st10{fill:#5E9EBF;}
</style>
<g>
	<path class="st0" d="M121,15.2C89.4,68.9,57.5,122.1,26.2,176.1c-1.5,4.7-13.9,15.2-5.2,17c26.1,2,52.5,0.9,78.8,1.1
		c26.9-0.2,53.7,0.8,80.3,0.8c6.4-1.9,33.3,4.5,30.7-4.3C182.5,131.3,151.3,73.7,121,15.2z"/>
	<path class="st1" d="M121,15.2c30.3,58.5,61.5,116.1,89.8,175.5c3,8.9-24.7,2.3-30.7,4.3c-26.6,0.1-53.4-0.9-80.3-0.8
		c-26.2-0.2-52.7,0.9-78.8-1.1c-8.9-1.7,3.9-12.3,5.2-17C57.5,122.1,89.4,68.9,121,15.2z M197.1,190.4c16.8,2.9-2.2-19.6-4.2-27.1
		c-21.5-42.6-43.7-84.7-65.1-127.3c-7.4-20.7-15,2.9-21.4,11.4C97,64.2,86,80.2,77,97.3c-4.1,10.9-63.7,93.9-48.8,92.8
		C84.5,189.3,140.8,190.8,197.1,190.4z"/>
	<path class="st2" d="M197.1,190.4c-56.3,0.4-112.6-1.1-168.9-0.3c-15.1,1.2,45-82.1,48.8-92.8c9-17.1,20.1-33.1,29.4-49.9
		c6.4-8.4,14-32.1,21.4-11.4c21.4,42.6,43.6,84.7,65.1,127.3C195.1,170.9,213.8,193.2,197.1,190.4z M195.3,186.4
		c7.1-6.1-17.7-38.3-20.5-48.2c-18.3-34.4-35.2-69.4-53.3-103.9c-0.7-1.3-2.4-1.3-2.8,0.2c-11.5,23.9-27.8,45.6-40.5,68.9
		c-12.3,21.1-25.5,40.9-37.6,62.2c-5.2,13.6-19.5,21.7,5.5,19.4C96.1,183.7,145.2,186.8,195.3,186.4z"/>
	<path class="st3" d="M195.3,186.4c-50.1,0.4-99.2-2.7-149.2-1.5c-24.7,2.2-10.9-5.6-5.5-19.4c12-21.3,25.2-41.1,37.6-62.2
		c12.7-23.2,29.1-45,40.5-68.9c0.4-1.3,2.1-1.6,2.8-0.2c18.1,34.5,35,69.5,53.3,103.9C177.9,148.5,202.1,179.8,195.3,186.4z
		 M165.7,181.7c39.5,1.2,20-5.3,6.3-37.6c-14.2-28.1-27.8-56.6-42.7-84.3c-2.9-3.1-5.1-17.5-10.3-11.6
		c-25.3,41.6-50.3,83.3-75.4,125c-10.5,14.8,37.6,5,45.5,7.6C114.6,181.2,140.1,180.9,165.7,181.7z"/>
	<path class="st4" d="M165.7,181.7c-25.5-0.8-51-0.5-76.6-0.8c-8.3-2.6-55.7,7.1-45.5-7.6c25.1-41.8,50.1-83.5,75.4-125.1
		c5.1-6.1,7.4,8.7,10.3,11.6c15,27.7,28.6,56.2,42.7,84.3C185.7,176.5,205.1,182.9,165.7,181.7z M158,166.9
		c17.2,0.7-13.5-38.3-15.4-46.8c-11.8-17.2-17.5-61-34.3-20.3C48.4,195.6,62.1,159.2,158,166.9z"/>
	<path class="st5" d="M158,166.9c-96-7.7-109.5,28.7-49.7-67c16.8-40.7,22.5,3,34.3,20.3C144.6,128.7,175.1,167.4,158,166.9z
		 M136.6,156.8c6,0.1,15.8,0.3,9.7-8.2c-8.6-15.3-15.2-32-25.1-46.6c-10.5,1.3-25,39-33.3,49.6C81.7,161.3,129.5,154.2,136.6,156.8z
		"/>
	<path class="st6" d="M136.6,156.8c-7.3-2.6-54.7,4.6-48.7-5.2c8.3-10.6,22.8-48.2,33.3-49.6c9.9,14.6,16.4,31.3,25.1,46.6
		C152.4,157.1,142.6,156.9,136.6,156.8z M119.6,104.1c-9.8,16.5-19.2,32.3-28.8,48.5C159.8,151.6,148.7,165,119.6,104.1z"/>
	<path class="st7" d="M119.6,104.1c29.3,61.1,40.1,47.5-28.8,48.5C100.4,136.3,109.8,120.5,119.6,104.1z M129.6,146.8
		c9.7,4.8-11.7-37.1-14.4-28.1C98,148.3,91.1,148.4,129.6,146.8z"/>
	<path class="st8" d="M129.6,146.8c-38.6,1.6-31.6,1.5-14.4-28.1C117.9,109.7,139.4,151.6,129.6,146.8z M109.9,137
		c0,5.9,8.5,6.6,12.1,3.5C125.1,129.2,114.3,125.2,109.9,137z"/>
	<path class="st9" d="M109.9,137c4.3-11.8,15.1-7.8,12.1,3.5C118.4,143.6,109.9,142.8,109.9,137z M113.1,136
		c0.6,4.2,7.4,4.6,7.1,0.8C118.5,132.1,115.7,132.1,113.1,136z"/>
	<path class="st10" d="M113.1,136c2.7-3.9,5.4-3.9,7.1,0.8C120.5,140.6,113.6,140.2,113.1,136z"/>
</g>
</svg>
