<?xml version="1.0" encoding="UTF-8"?><svg id="Layer_1" xmlns="http://www.w3.org/2000/svg" xmlns:xlink="http://www.w3.org/1999/xlink" viewBox="0 0 65.42 48.93"><defs><style>.cls-1,.cls-2{fill:none;}.cls-3{clip-path:url(#clippath);}.cls-4{fill:#f6851f;}.cls-5{fill:#f1e91c;}.cls-6{fill:#ef3f3b;}.cls-7{fill:#fecf0a;}.cls-8{fill:#8b4f9f;}.cls-9{fill:#8bc63f;}.cls-10{fill:#2bbaa2;}.cls-11{fill:#4d54a4;}.cls-2{stroke:#010101;stroke-miterlimit:10;stroke-width:.08px;}</style><clipPath id="clippath"><rect class="cls-1" width="65.42" height="48.93"/></clipPath></defs><g class="cls-3"><path class="cls-10" d="m62.85-.08l-.05.23c-.32,1.27-.77,2.47-1.2,3.7-.55,1.56-.85,3.19-1.21,4.81-.33,1.49-.63,3.14-1.53,4.39-.77,1.06-2.76,1.14-3.7.22-.55-.53-.72-1.4-1.05-2.09l1.81-.41c.27.31.63.49,1.1.22.93-.53.88-2.27,1.11-3.18.62-2.49,1.71-5.5,2.69-7.88h2.03Z"/><path class="cls-9" d="m58.67-.08h2.15c-.97,2.38-2.07,5.39-2.69,7.88-.23.92-.18,2.65-1.11,3.18-.47.27-.83.09-1.1-.22-.23-.27-.4-.64-.51-.94-.35-.91-1.04-1.89-2.12-1.89-.92,0-1.79.64-2.28,1.39-.86,1.33-1.07,2.99-1.34,4.52-.24,1.36-.47,2.71-.7,4.07l-1.66-.29c.01-.09.02-.17.03-.25.13-.97.22-1.93.3-2.91.06-.68.13-1.36.23-2.04.11-.68.26-1.36.46-2.02.43-1.37,1.24-2.55,1.77-3.88.2-.51.6-1.9,1.36-1.15.36.35.55.73,1.09.83.41.08.85-.03,1.17-.29.26-.21.55-.61.93-.38.19.11.33.36.43.55.18.36.33.92.71,1.12.77.42,1.09-.9,1.15-1.41.23-1.84,1.18-4.09,1.71-5.87Z"/><path class="cls-5" d="m56.63-.08h2.05c-.53,1.78-1.48,4.03-1.71,5.87-.06.51-.38,1.83-1.15,1.41-.38-.2-.53-.76-.71-1.12-.1-.19-.23-.44-.43-.55-.38-.23-.67.18-.93.38-.32.26-.76.37-1.17.29-.54-.11-.73-.48-1.09-.83-.76-.75-1.16.64-1.36,1.15-.53,1.33-1.34,2.51-1.77,3.88-.2.66-.35,1.34-.46,2.02l-1.75-.18c.15-.94.29-1.88.57-2.78.36-1.12.67-2.13,1.31-3.15.61-.97,1.31-1.91,1.66-3.01.17-.53.26-1.16.65-1.59.59-.65,1.32.11,1.54.7.19.53.51,1.7,1.28,1.38.36-.15.53-.41.77-.7.35.31.99.82,1.46.47.21-.16.32-.4.41-.64.29-.8.56-2.22.85-3.02Z"/><path class="cls-7" d="m54.67-.08h1.95c-.28.8-.55,2.22-.85,3.02-.09.24-.2.48-.41.64-.46.35-1.11-.16-1.46-.47-.24.29-.41.55-.77.7-.77.32-1.09-.85-1.28-1.38-.22-.59-.95-1.35-1.54-.7-.38.43-.48,1.06-.65,1.59-.35,1.1-1.05,2.03-1.66,3.01-.64,1.02-.95,2.03-1.31,3.15-.28.9-.42,1.84-.57,2.78-.09.56-.18,1.12-.31,1.68-.09.39-.28.7-.67.85-.43.16-.94-.28-1.15-.62-.26-.43-.39-.96-.78-1.31-.16-.15-.35-.28-.51-.44-.23-.24-.38-.54-.56-.81-.19-.26-.44-.51-.77-.57-.95-.16-1.1,1.62-1.31,2.2-.44,1.21-1.14,2.32-2.03,3.24-.84.87-1.53,2.03-1.85,3.21-.17.66-.22,1.34-.35,2-.03.18-.07.39-.12.6-.09.36-.24.7-.56.83-.71.29-1.21-.86-1.57-1.27-.01-.02-.03-.03-.05-.03-.03,0-.04.01-.07.03-.38.35-.97.94-1.47.37-.31-.36-.36-.95-.39-1.4-.08-1.11-.13-2.23-.46-3.3-.35-1.09-.9-2.1-1.31-3.17-.21-.55-.51-1.39-1.15-1.58-.16-.04-.31-.04-.46-.03l-.08-1.77c.18,0,.36-.04.56-.13.46-.2,1.41-1.43,1.83-.93.28.33.4.9.53,1.31.46,1.34,1.27,2.59,1.61,3.97.16.69.24,1.4.38,2.1.08.46.24,1.69,1.02,1.32.18-.09.31-.26.41-.44.53-.97.48-2.1,1.15-3.01.36-.49.82-.86,1.17-1.36.99-1.41,1.59-2.92,2.23-4.51.27-.67.67-1.6,1.42-1.82,1.12-.32,1.59.87,1.96,1.69.27.6.77,1.62,1.59,1.38.75-.21.9-1.2.99-1.85.14-1,.45-1.92.95-2.82.38-.7.85-1.36,1.22-2.06.55-1.07,1.03-2.74,1.35-3.89h3.85c.11.45.7,1.36,1.21,1.32.51-.03.99-.8,1.1-1.32Z"/><path class="cls-10" d="m55.92,10.77l-1.81.41c-.04-.1-.09-.2-.15-.29-.14-.24-.36-.5-.63-.45-.53.09-.85,1.08-.96,1.52-.46,1.97-.75,3.94-1.02,5.94-.26,1.9-.52,3.82-1.28,5.59-.64,1.51-2.07,2.75-3.79,2.67-1.34-.07-2.44-.93-2.89-2.18-.2-.56-.63-2.81-1.63-1.92-.5.43-.57,1.37-.7,1.98-.28,1.29-.28,2.61-.39,3.92-.04.46-.07.91-.1,1.37l-1.74-.12c.08-1.15.08-2.32.14-3.4.03-.44.06-.87.11-1.29.22-1.84.73-3.51,2.08-4.96.41-.44,1.02-.96,1.64-.75.65.22,1.17,1.04,1.43,1.64.37.87.8,2.46,1.86,2.75,2.03.56,2.42-2.67,2.65-3.94.08-.44.15-.88.23-1.32.23-1.36.46-2.71.7-4.07.26-1.53.48-3.19,1.34-4.52.48-.75,1.36-1.39,2.28-1.39,1.07,0,1.77.98,2.12,1.89.11.29.28.67.51.94Z"/><path class="cls-4" d="m52.36-.08h2.32c-.12.52-.6,1.29-1.1,1.32-.51.04-1.1-.87-1.21-1.32Z"/><path class="cls-9" d="m48.98,17.91c-.08.44-.16.88-.23,1.32-.23,1.27-.62,4.51-2.65,3.94-1.05-.29-1.49-1.88-1.86-2.75-.26-.6-.78-1.42-1.43-1.64-.62-.21-1.24.31-1.64.75-1.34,1.45-1.86,3.13-2.08,4.96l-1.82-.22c.06-.54.14-1.09.25-1.61.12-.6.28-1.19.49-1.75.33-.88.78-1.67,1.41-2.38.55-.62,1.13-1.2,1.49-1.95.24-.5.45-1.49,1.11-1.61.28-.04.55.14.71.37.25.36.45.83.8,1.11.3.24.67.22,1.02.35.66.24,1.04.86,1.19,1.51.08.33.19,1.18.72.92.57-.28.77-1,.86-1.61l1.66.29Z"/><path class="cls-4" d="m46.26-.08h2.25c-.32,1.15-.8,2.82-1.35,3.89-.37.71-.83,1.36-1.22,2.06-.5.9-.8,1.81-.95,2.82-.09.65-.24,1.64-.99,1.85-.82.24-1.32-.78-1.59-1.38-.37-.83-.83-2.01-1.96-1.69-.76.22-1.15,1.15-1.42,1.82-.64,1.59-1.24,3.1-2.23,4.51-.35.5-.81.87-1.17,1.36-.67.91-.62,2.03-1.15,3.01-.1.18-.23.35-.41.44-.78.37-.94-.87-1.02-1.32-.13-.7-.21-1.41-.38-2.1-.33-1.38-1.14-2.62-1.61-3.97-.14-.4-.26-.98-.53-1.31-.41-.5-1.37.73-1.83.93-.2.09-.39.13-.56.13-.74,0-1.27-.69-1.49-1.41-.26-.8-.56-1.59-1.06-2.28-.32-.44-.72-.81-1.06-1.23-.3-.38-.46-.84-.79-1.17-.83-.82-1.34,1.1-1.58,1.58-.28.56-.64,1.22-1.31,1.37-1.12.26-1.41-.7-1.54-1.59-.31-2.1-1.66-4.47-2.65-6.33h2.4c.31.45.82,1.42.98,1.95.16.51.26,1.16.67,1.55.77.73,1.61-.41,2.02-.95.28-.37.52-.76.89-1.04.04-.03.08-.06.12-.06.07,0,.12.07.16.13.53.8,1.1,1.62,1.7,2.37.5.62,1.13,1.16,1.57,1.82.56.83,1.06,2.74,2.42,2.01.42-.23.7-.73,1.09-1.02.72-.5.94.35,1.15.94.41,1.12.83,2.24,1.24,3.37.17.47.41,1.26.95,1.44,1.27.43,1.9-1.1,2.22-2.05.23-.68.36-1.39.66-2.06.56-1.24,1.49-2.19,2.13-3.36.1-.18.19-.38.33-.54.56-.67,1.19-.37,1.69.17.41.43.95.71,1.32,1.17.58.73,1.43.26,1.77-.43.18-.36.26-.75.36-1.14.34-1.33.99-3.14,1.74-4.28Z"/><path class="cls-5" d="m46.14,12.25l1.75.18c-.11.68-.18,1.36-.23,2.04-.08.97-.18,1.94-.3,2.91-.01.08-.02.16-.03.25-.09.61-.29,1.33-.86,1.61-.53.26-.64-.59-.72-.92-.16-.65-.53-1.27-1.19-1.51-.35-.13-.72-.1-1.02-.35-.35-.28-.55-.75-.8-1.11-.16-.23-.43-.41-.71-.37-.67.11-.87,1.1-1.11,1.61-.36.75-.95,1.33-1.49,1.95-.63.72-1.07,1.5-1.41,2.38-.21.56-.37,1.15-.49,1.75l-1.8-.39c.05-.21.09-.43.12-.6.13-.67.18-1.34.35-2,.31-1.18,1-2.35,1.85-3.21.9-.92,1.59-2.03,2.03-3.24.21-.58.36-2.36,1.31-2.2.33.06.58.31.77.57.19.27.34.57.56.81.16.16.35.29.51.44.4.35.52.88.78,1.31.21.35.73.78,1.15.62.4-.15.58-.46.67-.85.13-.55.22-1.12.31-1.68Z"/><path class="cls-6" d="m43.78-.08h2.47c-.76,1.14-1.41,2.95-1.74,4.28-.1.38-.18.78-.36,1.14-.34.69-1.19,1.16-1.77.43-.38-.46-.92-.73-1.32-1.17-.51-.54-1.14-.84-1.69-.17-.14.16-.23.36-.33.54-.65,1.17-1.57,2.13-2.13,3.36-.3.67-.43,1.37-.66,2.06-.31.95-.94,2.47-2.22,2.05-.54-.18-.78-.97-.95-1.44-.41-1.13-.83-2.25-1.24-3.37-.22-.59-.44-1.44-1.15-.94-.4.28-.67.79-1.09,1.02-1.36.73-1.86-1.17-2.42-2.01-.44-.66-1.07-1.21-1.57-1.82-.6-.75-1.17-1.57-1.7-2.37-.04-.06-.09-.12-.16-.13-.04,0-.08.03-.12.06-.37.28-.61.67-.89,1.04-.41.54-1.25,1.69-2.02.95-.4-.39-.51-1.04-.67-1.55-.16-.52-.67-1.5-.98-1.95h1.93c.16.7.47.93.8.98.51.08,1.07-.23,1.37-.98h1.9c.31.82,1.08,1.32,1.55,1.79.43.43.85.87,1.22,1.36.38.5.72,1.09,1.26,1.43.94.58,2-.14,2.68-.78.13-.11.24-.24.4-.31.4-.17.54.19.65.5.26.72.31,1.49.55,2.22.22.64.84,1.74,1.68,1.22.26-.16.43-.43.56-.71.24-.51.4-1.06.65-1.57.36-.73.92-1.34,1.45-1.96.63-.75,1.05-1.41,1.56-2.25.14-.24.28-.36.42-.36s.29.11.48.34c.24.28.51.63.69.95.31.56.66,1.23,1.36,1.18.56-.04.78-.57.93-1.05.18-.53.44-1.46.62-2Z"/><path class="cls-8" d="m39.72-.08h4.07c-.18.54-.44,1.47-.62,2-.15.48-.36,1-.93,1.05-.7.05-1.05-.62-1.36-1.18-.18-.32-.45-.67-.69-.95-.19-.23-.34-.34-.48-.34V-.08Z"/><path class="cls-10" d="m38.83,29.19l1.74.12c-.09,1.37-.18,2.74-.33,4.1-.24,2.08-.89,4.9-3.31,5.39-1.31.26-2.73-.29-3.41-1.47-1.12-1.91-.9-4.32-1.55-6.41-.02-.07-.05-.14-.11-.19-.08-.04-.17-.03-.26,0-.82.19-1.68.32-2.52.22-3.67-.46-3.8-4.96-3.87-7.8-.03-.92-.11-3.94-1.74-3.5-.94.24-1.41,1.81-1.79,2.58-.5.99-1.05,1.98-1.92,2.69-1.41,1.16-3.73.99-4.83-.56-1.74-2.44-.7-5.67-1.24-8.43-.24-1.22-.78-2.33-1.15-3.51-.34-1.06-.38-2.15-.46-3.25-.03-.35-.08-.94-.22-1.44l1.78-.16c.39,1.27.58,2.57.9,3.88.47,1.91,1.19,3.77,1.47,5.71.04.28.08.56.09.84.11,1.45-.41,5.33,2.2,4.81,1.35-.26,1.72-1.83,2.19-2.9.57-1.3,1.37-2.37,2.25-3.48,1.03-1.31,2.38.33,2.97,1.21.83,1.23,1.41,2.49,1.68,3.95.28,1.53,0,3.14.48,4.64.46,1.4,1.96,2.37,3.4,1.91.48-.15.94-.4,1.41-.6.09-.04.2-.08.3-.06.19.03.31.21.4.39.21.43.37.87.5,1.32.21.76.33,1.54.44,2.33.12.91.18,1.95.66,2.75.82,1.37,2.37.29,2.88-.74.65-1.31.87-2.82.97-4.34Z"/><path class="cls-8" d="m39.72-.08v.58c-.14,0-.28.13-.42.36-.51.84-.92,1.51-1.56,2.25-.53.62-1.09,1.23-1.45,1.96-.26.51-.41,1.06-.65,1.57-.13.28-.31.55-.56.71-.84.52-1.46-.58-1.68-1.22-.24-.73-.29-1.51-.55-2.22-.11-.31-.25-.67-.65-.5-.16.07-.28.19-.4.31-.68.65-1.74,1.37-2.68.78-.55-.34-.88-.94-1.26-1.43-.37-.49-.78-.93-1.22-1.36-.47-.47-1.24-.98-1.55-1.79h2.81c.32.26.88.99,1.06,1.36.18.38.35.89.73,1.12.48.28,1.21-.08,1.51-.47.16-.2.26-.43.37-.66.13-.28.45-1.07.58-1.35h.91c.26.41.73,1.17.91,1.78.25.85.67,1.57,1.44.88.6-.53,1.12-1.97,1.76-2.67h2.56Z"/><path class="cls-9" d="m37.27,24.28l1.82.22c-.05.42-.09.85-.11,1.29-.06,1.08-.07,2.24-.14,3.4-.09,1.53-.32,3.04-.97,4.34-.51,1.04-2.06,2.12-2.88.74-.48-.8-.54-1.84-.66-2.75-.11-.78-.23-1.57-.44-2.33l1.52-.4c.07.25.16.48.31.68.25.33.66.32.8-.08.4-1.14.48-2.38.59-3.56.05-.51.1-1.04.16-1.56Z"/><path class="cls-5" d="m35.72,22.28l1.8.39c-.11.53-.19,1.07-.25,1.61-.06.53-.11,1.05-.16,1.56-.11,1.18-.19,2.42-.59,3.56-.14.4-.55.4-.8.08-.15-.2-.24-.43-.31-.68-.15-.55-.16-1.19-.31-1.7-.27-.9-.76-1.71-1.46-2.34-.03-.03-.07-.06-.11-.06-.05,0-.09.03-.13.05-.39.27-.73.62-1.15.83-.57.29-1.31.2-1.76-.28-.4-.42-.47-1.11-.51-1.66-.1-1.32-.21-2.54-.56-3.82-.32-1.19-.78-2.33-1.41-3.38-.46-.75-.94-1.15-1.74-1.44-.73-.27-1.49-.68-1.96-1.32-.24-.33-.7-.92-1.09-1.07-.73-.29-1.31.73-1.64,1.22-.5.73-1,1.41-1.39,2.22-.3.65-.58,1.91-1.34,2.17-.63.22-1.02-.56-1.12-1.07-.01-.08-.03-.15-.04-.22-.06-.52-.04-1.05-.08-1.57-.08-.93-.41-1.77-.71-2.65-.59-1.69-.97-3.45-1.32-5.2-.28-1.41-.68-2.89-1.63-4.01-.37-.44-.87-.76-1.22-1.21-.28-.36-.48-.77-.7-1.16-.13-.21-.26-.44-.48-.55-.09-.04-.19-.07-.28-.07V-.08h2.55c.5.91,1.49,2.05,2.07,2.91,1.28,1.91,1.81,4.12,2.06,6.39.08.76.13,1.6.53,2.28.5.83,1.61.92,2.29.21.56-.6.87-1.34,1.29-2.03.53-.87,1.41-1.57,2.09-.44.55.91.78,2,1.41,2.87.28.4.66.7,1.14.83.51.14,1.02-.13,1.53-.19.16-.02.31-.02.46.03.65.19.94,1.03,1.15,1.58.41,1.07.96,2.08,1.31,3.17.34,1.07.39,2.19.46,3.3.03.45.08,1.04.39,1.4.5.56,1.09-.02,1.47-.37.03-.02.04-.04.07-.03.02,0,.04.01.05.03.36.41.86,1.56,1.57,1.27.32-.13.47-.48.56-.83Z"/><path class="cls-11" d="m33.04-.08h4.12c-.64.7-1.16,2.13-1.76,2.67-.78.68-1.19-.04-1.44-.88-.18-.61-.65-1.37-.91-1.78Z"/><path class="cls-9" d="m35.41,28.8l-1.52.4c-.13-.45-.29-.9-.5-1.32-.08-.18-.2-.36-.4-.39-.1-.01-.21.03-.3.06-.47.19-.92.45-1.41.6-1.44.46-2.94-.51-3.4-1.91-.48-1.5-.21-3.11-.48-4.64-.27-1.46-.85-2.72-1.68-3.95-.6-.88-1.95-2.52-2.97-1.21-.88,1.11-1.68,2.18-2.25,3.48-.47,1.07-.84,2.64-2.19,2.9-2.6.51-2.09-3.36-2.2-4.81-.02-.28-.05-.56-.09-.84l1.67-.22c.01.07.03.14.04.22.1.5.48,1.29,1.12,1.07.76-.26,1.04-1.52,1.34-2.17.38-.81.89-1.49,1.39-2.22.33-.49.9-1.51,1.64-1.22.39.16.85.75,1.09,1.07.46.63,1.22,1.05,1.96,1.32.81.29,1.29.69,1.74,1.44.63,1.05,1.09,2.19,1.41,3.38.35,1.27.46,2.5.56,3.82.04.55.12,1.24.51,1.66.45.48,1.19.56,1.76.28.42-.21.76-.56,1.15-.83.04-.03.08-.06.13-.05.04,0,.08.03.11.06.7.63,1.19,1.44,1.46,2.34.15.51.16,1.15.31,1.7Z"/><path class="cls-11" d="m27.88-.08h4.25c-.13.28-.45,1.07-.58,1.35-.11.23-.21.46-.37.66-.3.4-1.04.75-1.51.47-.38-.23-.55-.73-.73-1.12-.18-.37-.74-1.1-1.06-1.36Z"/><path class="cls-7" d="m28.14,10.97l.08,1.77c-.51.06-1.02.33-1.53.19-.48-.13-.85-.43-1.14-.83-.63-.87-.87-1.96-1.41-2.87-.68-1.13-1.56-.43-2.09.44-.42.69-.72,1.44-1.29,2.03-.68.71-1.79.62-2.29-.21-.4-.68-.45-1.52-.53-2.28-.24-2.27-.78-4.47-2.06-6.39-.58-.85-1.58-2-2.07-2.91h2.84c1,1.85,2.35,4.22,2.65,6.33.13.89.41,1.86,1.54,1.59.67-.16,1.03-.81,1.31-1.37.23-.48.74-2.4,1.58-1.58.33.33.49.8.79,1.17.34.42.74.79,1.06,1.23.5.68.8,1.47,1.06,2.28.23.72.75,1.41,1.49,1.41Z"/><path class="cls-8" d="m21-.08h2.18c-.3.75-.87,1.05-1.37.98-.33-.05-.64-.28-.8-.98Z"/><path class="cls-9" d="m17.68,16.94l-1.67.22c-.28-1.95-1-3.8-1.47-5.71-.32-1.31-.51-2.61-.9-3.88-.13-.42-.28-.84-.47-1.25-.4-.87-1.68-3.21-2.89-2.1-.55.5-.83,1.22-1.32,1.76-.84.93-2.15,1.36-3.32.73-.82-.44-1.17-1.51-1.28-2.37-.16-1.28-.4-3.14-.55-4.42h1.58c.08.8.22,2.15.35,2.94.14.92.62,1.86,1.73,1.54.81-.23,1.32-1,1.77-1.66.35-.52,1.18-2.22,2.02-2.22.09,0,.19.03.28.07.23.11.36.33.48.55.21.4.42.8.7,1.16.35.45.85.77,1.22,1.21.95,1.12,1.35,2.6,1.63,4.01.35,1.75.73,3.51,1.32,5.2.3.88.63,1.72.71,2.65.04.52.01,1.05.08,1.57Z"/><path class="cls-10" d="m13.65,7.57l-1.78.16c-.21-.76-.63-1.32-1.47-.56-.88.8-1.41,1.86-2.62,2.26-1.18.39-2.42.08-3.39-.65-1.32-.99-1.81-2.27-2.05-3.85C2.12,3.42,1.9,1.51,1.76-.02v-.06S3.81-.08,3.81-.08c.16,1.29.4,3.14.55,4.42.11.87.46,1.93,1.28,2.37,1.17.63,2.48.19,3.32-.73.5-.55.78-1.26,1.32-1.76,1.21-1.11,2.49,1.22,2.89,2.1.19.41.34.83.47,1.25Z"/><path class="cls-5" d="m11.26-.08v.61c-.84,0-1.67,1.7-2.02,2.22-.45.65-.96,1.43-1.77,1.66-1.11.31-1.59-.62-1.73-1.54-.13-.79-.27-2.14-.35-2.94h1.57c.03.41.04,1.85.68,1.99.73.17,1.36-1.51,1.53-1.99h2.08Z"/><path class="cls-7" d="m6.96-.08h2.22c-.18.48-.8,2.16-1.53,1.99-.65-.14-.65-1.58-.68-1.99Z"/><path class="cls-2" d="m60.82-.08h2.03l-.05.23c-.32,1.27-.77,2.47-1.2,3.7-.55,1.56-.85,3.19-1.21,4.81-.33,1.49-.63,3.14-1.53,4.39-.77,1.06-2.76,1.14-3.7.22-.55-.53-.72-1.4-1.05-2.09-.04-.1-.09-.2-.15-.29-.14-.24-.36-.5-.63-.45-.53.09-.85,1.08-.96,1.52-.46,1.97-.75,3.94-1.02,5.94-.26,1.9-.52,3.82-1.28,5.59-.64,1.51-2.07,2.75-3.79,2.67-1.34-.07-2.44-.93-2.89-2.18-.2-.56-.63-2.81-1.63-1.92-.5.43-.57,1.37-.7,1.98-.28,1.29-.28,2.61-.39,3.92-.04.46-.07.91-.1,1.37-.09,1.37-.18,2.74-.33,4.1-.24,2.08-.89,4.9-3.31,5.39-1.31.26-2.73-.29-3.41-1.47-1.12-1.91-.9-4.32-1.55-6.41-.02-.07-.05-.14-.11-.19-.08-.04-.17-.03-.26,0-.82.19-1.68.32-2.52.22-3.67-.46-3.8-4.96-3.87-7.8-.03-.92-.11-3.94-1.74-3.5-.94.24-1.41,1.81-1.79,2.58-.5.99-1.05,1.98-1.92,2.69-1.41,1.16-3.73.99-4.83-.56-1.74-2.44-.7-5.67-1.24-8.43-.24-1.22-.78-2.33-1.15-3.51-.34-1.06-.38-2.15-.46-3.25-.03-.35-.08-.94-.22-1.44-.21-.76-.63-1.32-1.47-.56-.88.8-1.41,1.86-2.62,2.26-1.18.39-2.42.08-3.39-.65-1.32-.99-1.81-2.27-2.05-3.85C2.12,3.42,1.9,1.51,1.76-.02v-.06S3.81-.08,3.81-.08h57.01Z"/><path class="cls-2" d="m3.81-.08c.16,1.29.4,3.14.55,4.42.11.87.46,1.93,1.28,2.37,1.17.63,2.48.19,3.32-.73.5-.55.78-1.26,1.32-1.76,1.21-1.11,2.49,1.22,2.89,2.1.19.41.34.83.47,1.25.39,1.27.58,2.57.9,3.88.47,1.91,1.19,3.77,1.47,5.71.04.28.08.56.09.84.11,1.45-.41,5.33,2.2,4.81,1.35-.26,1.72-1.83,2.19-2.9.57-1.3,1.37-2.37,2.25-3.48,1.03-1.31,2.38.33,2.97,1.21.83,1.23,1.41,2.49,1.68,3.95.28,1.53,0,3.14.48,4.64.46,1.4,1.96,2.37,3.4,1.91.48-.15.94-.4,1.41-.6.09-.04.2-.08.3-.06.19.03.31.21.4.39.21.43.37.87.5,1.32.21.76.33,1.54.44,2.33.12.91.18,1.95.66,2.75.82,1.37,2.37.29,2.88-.74.65-1.31.87-2.82.97-4.34.08-1.15.08-2.32.14-3.4.03-.44.06-.87.11-1.29.22-1.84.73-3.51,2.08-4.96.41-.44,1.02-.96,1.64-.75.65.22,1.17,1.04,1.43,1.64.37.87.8,2.46,1.86,2.75,2.03.56,2.42-2.67,2.65-3.94.08-.44.15-.88.23-1.32.23-1.36.46-2.71.7-4.07.26-1.53.48-3.19,1.34-4.52.48-.75,1.36-1.39,2.28-1.39,1.07,0,1.77.98,2.12,1.89.11.29.28.67.51.94.27.31.63.49,1.1.22.93-.53.88-2.27,1.11-3.18.62-2.49,1.71-5.5,2.69-7.88"/><path class="cls-2" d="m5.39-.08c.08.8.22,2.15.35,2.94.14.92.62,1.86,1.73,1.54.81-.23,1.32-1,1.77-1.66.35-.52,1.18-2.22,2.02-2.22.09,0,.19.03.28.07.23.11.36.33.48.55.21.4.42.8.7,1.16.35.45.85.77,1.22,1.21.95,1.12,1.35,2.6,1.63,4.01.35,1.75.73,3.51,1.32,5.2.3.88.63,1.72.71,2.65.04.52.01,1.05.08,1.57.01.07.03.14.04.22.1.5.48,1.29,1.12,1.07.76-.26,1.04-1.52,1.34-2.17.38-.81.89-1.49,1.39-2.22.33-.49.9-1.51,1.64-1.22.39.16.85.75,1.09,1.07.46.63,1.22,1.05,1.96,1.32.81.29,1.29.69,1.74,1.44.63,1.05,1.09,2.19,1.41,3.38.35,1.27.46,2.5.56,3.82.04.55.12,1.24.51,1.66.45.48,1.19.56,1.76.28.42-.21.76-.56,1.15-.83.04-.03.08-.06.13-.05.04,0,.08.03.11.06.7.63,1.19,1.44,1.46,2.34.15.51.16,1.15.31,1.7.07.25.16.48.31.68.25.33.66.32.8-.08.4-1.14.48-2.38.59-3.56.05-.51.1-1.04.16-1.56.06-.54.14-1.09.25-1.61.12-.6.28-1.19.49-1.75.33-.88.78-1.67,1.41-2.38.55-.62,1.13-1.2,1.49-1.95.24-.5.45-1.49,1.11-1.61.28-.04.55.14.71.37.25.36.45.83.8,1.11.3.24.67.22,1.02.35.66.24,1.04.86,1.19,1.51.08.33.19,1.18.72.92.57-.28.77-1,.86-1.61.01-.09.02-.17.03-.25.13-.97.22-1.93.3-2.91.06-.68.13-1.36.23-2.04.11-.68.26-1.36.46-2.02.43-1.37,1.24-2.55,1.77-3.88.2-.51.6-1.9,1.36-1.15.36.35.55.73,1.09.83.41.08.85-.03,1.17-.29.26-.21.55-.61.93-.38.19.11.33.36.43.55.18.36.33.92.71,1.12.77.42,1.09-.9,1.15-1.41.23-1.84,1.18-4.09,1.71-5.87"/><path class="cls-2" d="m6.96-.08c.03.41.04,1.85.68,1.99.73.17,1.36-1.51,1.53-1.99"/><path class="cls-2" d="m13.82-.08c.5.91,1.49,2.05,2.07,2.91,1.28,1.91,1.81,4.12,2.06,6.39.08.76.13,1.6.53,2.28.5.83,1.61.92,2.29.21.56-.6.87-1.34,1.29-2.03.53-.87,1.41-1.57,2.09-.44.55.91.78,2,1.41,2.87.28.4.66.7,1.14.83.51.14,1.02-.13,1.53-.19.16-.02.31-.02.46.03.65.19.94,1.03,1.15,1.58.41,1.07.96,2.08,1.31,3.17.34,1.07.39,2.19.46,3.3.03.45.08,1.04.39,1.4.5.56,1.09-.02,1.47-.37.03-.02.04-.04.07-.03.02,0,.04.01.05.03.36.41.86,1.56,1.57,1.27.32-.13.47-.48.56-.83.05-.21.09-.43.12-.6.13-.67.18-1.34.35-2,.31-1.18,1-2.35,1.85-3.21.9-.92,1.59-2.03,2.03-3.24.21-.58.36-2.36,1.31-2.2.33.06.58.31.77.57.19.27.34.57.56.81.16.16.35.29.51.44.4.35.52.88.78,1.31.21.35.73.78,1.15.62.4-.15.58-.46.67-.85.13-.55.22-1.12.31-1.68.15-.94.29-1.88.57-2.78.36-1.12.67-2.13,1.31-3.15.61-.97,1.31-1.91,1.66-3.01.17-.53.26-1.16.65-1.59.59-.65,1.32.11,1.54.7.19.53.51,1.7,1.28,1.38.36-.15.53-.41.77-.7.35.31.99.82,1.46.47.21-.16.32-.4.41-.64.29-.8.56-2.22.85-3.02"/><path class="cls-2" d="m52.36-.08c.11.45.7,1.36,1.21,1.32.51-.03.99-.8,1.1-1.32"/><path class="cls-2" d="m16.66-.08c1,1.85,2.35,4.22,2.65,6.33.13.89.41,1.86,1.54,1.59.67-.16,1.03-.81,1.31-1.37.23-.48.74-2.4,1.58-1.58.33.33.49.8.79,1.17.34.42.74.79,1.06,1.23.5.68.8,1.47,1.06,2.28.23.72.75,1.41,1.49,1.41.18,0,.36-.04.56-.13.46-.2,1.41-1.43,1.83-.93.28.33.4.9.53,1.31.46,1.34,1.27,2.59,1.61,3.97.16.69.24,1.4.38,2.1.08.46.24,1.69,1.02,1.32.18-.09.31-.26.41-.44.53-.97.48-2.1,1.15-3.01.36-.49.82-.86,1.17-1.36.99-1.41,1.59-2.92,2.23-4.51.27-.67.67-1.6,1.42-1.82,1.12-.32,1.59.87,1.96,1.69.27.6.77,1.62,1.59,1.38.75-.21.9-1.2.99-1.85.14-1,.45-1.92.95-2.82.38-.7.85-1.36,1.22-2.06.55-1.07,1.03-2.74,1.35-3.89"/><path class="cls-2" d="m19.06-.08c.31.45.82,1.42.98,1.95.16.51.26,1.16.67,1.55.77.73,1.61-.41,2.02-.95.28-.37.52-.76.89-1.04.04-.03.08-.06.12-.06.07,0,.12.07.16.13.53.8,1.1,1.62,1.7,2.37.5.62,1.13,1.16,1.57,1.82.56.83,1.06,2.74,2.42,2.01.42-.23.7-.73,1.09-1.02.72-.5.94.35,1.15.94.41,1.12.83,2.24,1.24,3.37.17.47.41,1.26.95,1.44,1.27.43,1.9-1.1,2.22-2.05.23-.68.36-1.39.66-2.06.56-1.24,1.49-2.19,2.13-3.36.1-.18.19-.38.33-.54.56-.67,1.19-.37,1.69.17.41.43.95.71,1.32,1.17.58.73,1.43.26,1.77-.43.18-.36.26-.75.36-1.14.34-1.33.99-3.14,1.74-4.28"/><path class="cls-2" d="m21-.08c.16.7.47.93.8.98.51.08,1.07-.23,1.37-.98"/><path class="cls-2" d="m25.07-.08c.31.82,1.08,1.32,1.55,1.79.43.43.85.87,1.22,1.36.38.5.72,1.09,1.26,1.43.94.58,2-.14,2.68-.78.13-.11.24-.24.4-.31.4-.17.54.19.65.5.26.72.31,1.49.55,2.22.22.64.84,1.74,1.68,1.22.26-.16.43-.43.56-.71.24-.51.4-1.06.65-1.57.36-.73.92-1.34,1.45-1.96.63-.75,1.05-1.41,1.56-2.25.14-.24.28-.36.42-.36s.29.11.48.34c.24.28.51.63.69.95.31.56.66,1.23,1.36,1.18.56-.04.78-.57.93-1.05.18-.53.44-1.46.62-2"/><path class="cls-2" d="m27.88-.08c.32.26.88.99,1.06,1.36.18.38.35.89.73,1.12.48.28,1.21-.08,1.51-.47.16-.2.26-.43.37-.66.13-.28.45-1.07.58-1.35"/><path class="cls-2" d="m33.04-.08c.26.41.73,1.17.91,1.78.25.85.67,1.57,1.44.88.6-.53,1.12-1.97,1.76-2.67"/></g></svg>